<svg xmlns="http://www.w3.org/2000/svg" viewBox="0 0 20 20" class="w-5 h-5 m-auto"><path fill="#FFA000" d="M12.096 16.666a3.333 3.333 0 1 1-6.666 0 3.333 3.333 0 0 1 6.666 0Z"></path><path fill="#FFC107" d="M14.603 9.935c-2.825-.404-5.007-2.833-5.007-5.768 0-.833.179-1.624.495-2.342-.427-.1-.87-.158-1.328-.158A5.84 5.84 0 0 0 2.93 7.5v2.324a5.59 5.59 0 0 1-1.99 4.277 1.46 1.46 0 0 0 .948 2.566h13.75a1.46 1.46 0 0 0 .94-2.573 5.58 5.58 0 0 1-1.975-4.16Z"></path><path fill="#F44336" d="M19.596 4.167a4.167 4.167 0 1 1-8.333 0 4.167 4.167 0 0 1 8.333 0Z"></path></svg>