<svg xmlns="http://www.w3.org/2000/svg" viewBox="0 0 60 60" fill="none" class="w-10 lg:w-12 3xl:w-[52px] h-auto mb-5 3xl:mb-7"><path fill="#FF7953" d="M57.9 0v41.013c0 5.793-4.713 10.509-10.508 10.509-5.796 0-10.51-4.716-10.51-10.51s4.715-10.51 10.51-10.51c2.68 0 5.13 1.01 6.987 2.668V15.92l-17.816 4.517-10.17 2.578-3.273.839v25.658h-.001C23.107 55.297 18.398 60 12.609 60 6.816 60 2.102 55.285 2.102 49.49S6.815 38.98 12.61 38.98c2.68 0 5.13 1.01 6.988 2.668V9.71l16.965-4.301L57.901 0Z"></path><path fill="#FF4F18" d="M57.9 0v41.013c0 5.793-4.714 10.509-10.51 10.509-5.794 0-10.51-4.716-10.51-10.51s4.716-10.51 10.51-10.51c2.68 0 5.13 1.01 6.988 2.668V15.92l-17.816 4.517V5.409L57.9 0Z"></path></svg>