<svg xmlns="http://www.w3.org/2000/svg" viewBox="0 0 60 60" fill="none" class="w-10 lg:w-12 3xl:w-[52px] h-auto mb-5 3xl:mb-7"><path fill="#4086F4" d="m52.852 15.82-12.305-3.515L37.03 0H12.42a5.273 5.273 0 0 0-5.273 5.273v49.454A5.273 5.273 0 0 0 12.422 60h35.156a5.273 5.273 0 0 0 5.274-5.273V15.82Z"></path><path fill="#4175DF" d="M52.852 15.82v38.907A5.273 5.273 0 0 1 47.578 60H30V0h7.031l3.516 12.305 12.305 3.515Z"></path><path fill="#80AEF8" d="M52.852 15.82H40.547a3.526 3.526 0 0 1-3.516-3.515V0c.457 0 .914.176 1.23.527L52.325 14.59c.352.316.528.773.528 1.23Z"></path><path class="fill-[#FFF5F5] dark:fill-[#FFF5F5]/50" d="M40.547 28.242H19.453a1.757 1.757 0 1 1 0-3.515h21.094a1.757 1.757 0 1 1 0 3.515Zm0 7.031H19.453a1.757 1.757 0 1 1 0-3.515h21.094a1.757 1.757 0 1 1 0 3.515Zm0 7.032H19.453a1.757 1.757 0 1 1 0-3.516h21.094a1.757 1.757 0 1 1 0 3.516Zm-7.031 7.031H19.453a1.757 1.757 0 1 1 0-3.516h14.063a1.757 1.757 0 1 1 0 3.516Z"></path><path class="fill-[#FFF5F5] dark:fill-[#FFF5F5]/50" d="M30 49.336h3.516a1.757 1.757 0 1 0 0-3.516H30v3.516Zm0-7.031h10.547a1.757 1.757 0 1 0 0-3.516H30v3.516Zm0-7.032h10.547a1.757 1.757 0 1 0 0-3.515H30v3.515Zm0-7.031h10.547a1.757 1.757 0 1 0 0-3.515H30v3.515Z"></path></svg>