<svg xmlns="http://www.w3.org/2000/svg" viewBox="0 0 260 192" fill="none" class="w-[200px] md:w-[280px] h-auto"><path fill="#F5F5F5" d="M57.724 52.843 9.229 85.283l47.767 71.408 48.495-32.44-47.767-71.408Z"></path><path fill="#475569" d="m80.431 120.874-.553 3.406-24.11-3.475.554-3.406 24.11 3.475Z"></path><path fill="#475569" d="m68.29 108.724 3.458.497-3.834 23.738-3.462-.502 3.838-23.733ZM46.105 78.555c.034.048-4.824 3.363-10.853 7.391-6.03 4.029-10.944 7.261-10.979 7.21-.034-.052 4.824-3.363 10.853-7.396 6.03-4.032 10.922-7.257 10.979-7.205Zm17.815-4.477c.035.051-8.047 5.515-18.049 12.205-10.001 6.691-18.153 12.072-18.179 12.025-.026-.048 8.04-5.52 18.054-12.21 10.014-6.691 18.14-12.072 18.175-12.02Zm3.575 5.342c.034.052-8.048 5.52-18.05 12.21-10 6.69-18.152 12.072-18.178 12.02-.026-.052 8.047-5.515 18.053-12.21 10.006-6.695 18.14-12.072 18.175-12.02Zm3.575 5.346c.034.052-8.048 5.52-18.05 12.206-10.001 6.686-18.153 12.076-18.153 12.024 0-.052 8.044-5.519 18.05-12.21 10.005-6.69 18.118-12.072 18.152-12.02Zm3.56 5.347c.035.052-8.047 5.515-18.048 12.206-10.002 6.69-18.154 12.072-18.175 12.02-.022-.052 8.056-5.515 18.07-12.206 10.015-6.69 18.154-12.072 18.154-12.02Z"></path><path fill="#F5F5F5" d="m219.886 100.691-40.728 27.245 40.115 59.969 40.728-27.244-40.115-59.97Z"></path><path fill="#475569" d="m238.96 157.837-.463 2.861-20.249-2.917.462-2.862 20.25 2.918Z"></path><path fill="#475569" d="m228.759 147.632 2.909.42-3.224 19.933-2.905-.419 3.22-19.934Zm-18.645-25.315c.034.052-4.042 2.84-9.107 6.224-5.066 3.385-9.198 6.09-9.232 6.051-.035-.039 4.045-2.835 9.106-6.224 5.062-3.388 9.198-6.124 9.233-6.051Zm14.976-3.782c.034.052-6.747 4.651-15.128 10.266-8.38 5.614-15.24 10.135-15.274 10.083-.035-.052 6.747-4.651 15.127-10.269 8.381-5.619 15.227-10.132 15.275-10.08Zm3.004 4.487c.034.052-6.747 4.651-15.128 10.269-8.38 5.619-15.24 10.131-15.274 10.08-.035-.052 6.725-4.629 15.127-10.248 8.403-5.619 15.249-10.149 15.275-10.101Zm2.999 4.482c.035.052-6.751 4.651-15.127 10.269-8.377 5.619-15.24 10.132-15.275 10.08-.034-.052 6.747-4.647 15.128-10.27 8.381-5.623 15.244-10.122 15.274-10.079Zm3.026 4.499c.034.052-6.747 4.647-15.128 10.266-8.38 5.618-15.24 10.131-15.274 10.083-.035-.047 6.747-4.651 15.127-10.269 8.381-5.619 15.219-10.131 15.275-10.08Z"></path><path fill="#F5F5F5" d="m155.447 55.47-44.439-23.768L76.01 97.138l44.439 23.768 34.998-65.436Z"></path><path fill="#475569" d="m112.847 100.434-2.818.964-7.157-19.783 2.818-.968 7.157 19.787Z"></path><path fill="#475569" d="m117.17 86.24 1.028 2.84-19.648 6.73-1.029-2.84 19.649-6.73Zm13.96-29.187c-.034.065-4.538-2.278-10.066-5.23-5.528-2.952-9.976-5.403-9.941-5.468.035-.064 4.543 2.278 10.071 5.23 5.528 2.952 9.971 5.398 9.936 5.468Zm10.667 11.769c-.034.065-7.494-3.86-16.662-8.761-9.167-4.901-16.566-8.93-16.532-8.995.035-.064 7.49 3.856 16.658 8.761 9.167 4.906 16.571 8.93 16.536 8.995Zm-2.619 4.897c-.034.065-7.495-3.855-16.662-8.757-9.167-4.901-16.567-8.934-16.532-8.999.034-.064 7.49 3.86 16.658 8.762 9.167 4.9 16.571 8.93 16.536 8.994Zm-2.619 4.897c-.035.065-7.495-3.856-16.662-8.757-9.167-4.901-16.567-8.916-16.532-8.994.034-.078 7.49 3.855 16.657 8.756 9.168 4.902 16.571 8.93 16.537 8.995Zm-2.619 4.897c-.035.065-7.495-3.855-16.662-8.757-9.168-4.901-16.572-8.93-16.533-8.994.039-.065 7.491 3.855 16.658 8.757 9.167 4.9 16.571 8.93 16.537 8.994Z"></path><path fill="#64748B" d="M13.814 163.032a5.462 5.462 0 0 1 3.794 1.945 9.58 9.58 0 0 1 1.933 3.89c.73 2.732.28 5.96-.497 8.679-2.957-1.059-4.785-4.214-5.62-5.874-1.296-2.619-2.07-8.151.377-8.644m9.499 17.833a4.64 4.64 0 0 1-.215-4.659 6.162 6.162 0 0 1 3.717-2.987c.721-.224 1.56-.315 2.187.104a1.98 1.98 0 0 1 .765 1.863 4.004 4.004 0 0 1-.865 1.91c-1.439 1.95-3.185 3.57-5.619 3.769"></path><path fill="#0F172A" d="M23.63 189.994a2.805 2.805 0 0 1-.135-.566c-.078-.407-.181-.93-.307-1.556a16.322 16.322 0 0 1-.32-5.234 9.943 9.943 0 0 1 1.941-4.846 6.627 6.627 0 0 1 1.12-1.136c.113-.09.231-.174.354-.251a.504.504 0 0 1 .13-.078c-.547.467-1.046.987-1.491 1.552a10.309 10.309 0 0 0-1.85 4.789c-.277 2.014.065 3.859.263 5.186.104.662.19 1.198.238 1.569.034.189.053.379.056.571Z"></path><path fill="#0F172A" d="M14.764 167.194c.05.068.09.143.122.221.077.173.181.389.302.661.264.575.631 1.409 1.076 2.442.89 2.07 2.084 4.949 3.328 8.156a210.829 210.829 0 0 1 3.026 8.264c.372 1.063.661 1.928.864 2.528.091.286.16.515.216.692.031.079.053.162.065.246a1.04 1.04 0 0 1-.103-.233c-.065-.173-.147-.398-.256-.679l-.911-2.506a472.706 472.706 0 0 0-3.095-8.239 438.159 438.159 0 0 0-3.272-8.173c-.432-1.024-.765-1.858-1.011-2.468-.113-.276-.204-.497-.273-.674a1.495 1.495 0 0 1-.078-.238Z"></path><path fill="#64748B" d="M20.115 183.951a10.882 10.882 0 0 0-8.437-5.242c-.864-.061-1.927.086-2.316.864-.39.778.13 1.729.726 2.36a9.287 9.287 0 0 0 10.058 2.248"></path><path fill="#0F172A" d="M13.01 181.051c.183-.009.367-.002.549.022.213.011.425.036.635.073.246.048.536.074.838.16.339.072.672.164.999.277.379.121.75.266 1.11.432.832.372 1.618.838 2.343 1.387a11.828 11.828 0 0 1 1.937 1.919c.245.311.472.635.678.973.187.292.357.593.51.903.13.253.246.513.346.778.087.197.16.399.22.605.064.173.112.351.143.532-.048 0-.255-.743-.838-1.85a9.447 9.447 0 0 0-.523-.864 10.987 10.987 0 0 0-.683-.947 11.516 11.516 0 0 0-4.21-3.25c-.376-.164-.735-.32-1.085-.432a9.59 9.59 0 0 0-.981-.299c-1.21-.332-1.993-.371-1.988-.419Z"></path><path fill="#334155" d="m91.92 101.372-15.3 78.577-1.99 10.287 102.004-.493c4.582-.022 8.644-4.089 10.11-10.131l18.092-74.181c1.12-4.586-1.335-9.358-4.81-9.354l-103.266.108c-2.247-.004-4.261 2.123-4.84 5.187Z"></path><path fill="#FFA000" d="m91.92 101.372-15.3 78.577-1.99 10.287 102.004-.493c4.582-.022 8.644-4.089 10.11-10.131l18.092-74.181c1.12-4.586-1.335-9.358-4.81-9.354l-103.266.108c-2.247-.004-4.261 2.123-4.84 5.187Z"></path><path fill="#FFC107" d="m166.862 174.616-10.806-87.053c-.432-3.566-3.28-6.228-6.639-6.216l-23.685.074a6.486 6.486 0 0 0-4.681 2.075l-11.238 11.959-65.87.354c-4.023.022-7.118 3.834-6.587 8.113l10.032 80.457c.433 3.562 3.28 6.22 6.63 6.216l114.819-.23c12.785.264 14.008-3.509 14.008-3.509-14.678 3.246-15.983-12.219-15.983-12.24Z"></path><path fill="#fff" d="m117.351 157.206-3.872 4.158-29.823-26.832 3.872-4.158 29.823 26.832Z"></path><path fill="#fff" d="m111.858 129.453 4.279 3.851-26.988 28.98-4.279-3.851 26.988-28.98Z"></path><path fill="#FFA000" d="M183.256 44.855a.803.803 0 0 1-.489-.704l-.173-4.011a.809.809 0 0 1 .29-.658.802.802 0 0 1 .7-.163 2.517 2.517 0 0 0 1.954-.385 2.248 2.248 0 0 0 1.007-1.478 2.309 2.309 0 0 0-.484-1.729 2.605 2.605 0 0 0-1.703-1.024 3.026 3.026 0 0 0-3.069 2.16.81.81 0 0 1-.985.529.808.808 0 0 1-.571-.96 4.65 4.65 0 0 1 4.811-3.359 4.177 4.177 0 0 1 2.805 1.656 3.96 3.96 0 0 1 .791 2.969 3.89 3.89 0 0 1-1.729 2.559 4.203 4.203 0 0 1-2.187.713l.134 3.095a.81.81 0 0 1-1.124.773l.022.017Zm1.184 1.643a.662.662 0 1 1-1.321.09.662.662 0 0 1 1.321-.09Z"></path><path fill="#FFA000" d="M169.368 39.198c.019-.086.032-.172.039-.26 0-.19.048-.432.083-.773.042-.42.113-.835.211-1.245.056-.242.087-.51.173-.782.087-.273.173-.566.268-.865a14.936 14.936 0 0 1 2.161-4.119 14.487 14.487 0 0 1 4.543-3.95 14.252 14.252 0 0 1 3.203-1.323 14.492 14.492 0 0 1 3.695-.484c.657-.01 1.314.024 1.967.104.332.034.661.12.994.177.336.058.668.139.994.242a13.83 13.83 0 0 1 3.842 1.742 14.453 14.453 0 0 1 5.714 7.175c.579 1.58.872 3.25.865 4.931a13.914 13.914 0 0 1-.904 5.075l-.194.492-.026.065.026.065c1.085 2.494 2.161 4.944 3.177 7.317l.181-.207-6.483-2.485-.078-.03-.065.06a14.472 14.472 0 0 1-6.111 3.527 14.4 14.4 0 0 1-11.67-1.811 14.77 14.77 0 0 1-3.644-3.393 14.354 14.354 0 0 1-2.766-6.63l-.134-1.124c-.039-.329 0-.596-.022-.826-.021-.229 0-.38 0-.505a.088.088 0 0 0 .074-.092.087.087 0 0 0-.145-.057.089.089 0 0 0-.028.057.088.088 0 0 0 .073.092v1.34c0 .328.074.704.117 1.132.142 1.04.39 2.062.739 3.051a15.84 15.84 0 0 0 1.98 3.674 14.91 14.91 0 0 0 3.669 3.458 14.593 14.593 0 0 0 11.847 1.893 14.695 14.695 0 0 0 6.19-3.561l-.143.03 6.483 2.498.325.126-.143-.333c-1.029-2.373-2.092-4.82-3.173-7.318v.126l.199-.506c.631-1.656.945-3.415.925-5.187a14.454 14.454 0 0 0-.864-5.04 14.702 14.702 0 0 0-5.839-7.308 13.962 13.962 0 0 0-3.942-1.772 6.885 6.885 0 0 0-1.012-.238c-.337-.06-.67-.147-1.007-.177a14.869 14.869 0 0 0-1.992-.113 14.506 14.506 0 0 0-3.752.51 14.78 14.78 0 0 0-3.246 1.358 14.505 14.505 0 0 0-4.568 4.04 14.778 14.778 0 0 0-2.131 4.185c-.091.31-.177.61-.255.864a7.35 7.35 0 0 0-.164.791 8.156 8.156 0 0 0-.182 1.254c-.026.332-.043.587-.056.778-.018.093-.024.19-.018.285Z"></path></svg>