<svg xmlns="http://www.w3.org/2000/svg" viewBox="0 0 100 120" fill="none" class="w-auto h-full shrink-0"><path fill="#00AEC6" d="M69.835 24.62a10.315 10.315 0 0 1-10.31-10.31V0h-46.07A13.455 13.455 0 0 0 0 13.46v81.105a13.455 13.455 0 0 0 13.455 13.46h55.3a13.446 13.446 0 0 0 9.516-3.943 13.45 13.45 0 0 0 3.94-9.517v-69.94l-12.376-.005Z" opacity="0.3"></path><path fill="#00AEC6" d="M82.21 24.62H69.835a10.315 10.315 0 0 1-10.31-10.31V0L82.21 24.62Zm9.76 60.68H29.45a8.03 8.03 0 0 0-8.03 8.03v18.641a8.03 8.03 0 0 0 8.03 8.03h62.52a8.03 8.03 0 0 0 8.03-8.03v-18.64a8.03 8.03 0 0 0-8.03-8.03Z"></path><path fill="#fff" d="M32.352 95.453v14.545h-3.076V95.453h3.076Zm2.53 0h3.792l4.006 9.772h.17l4.006-9.772h3.793v14.545h-2.983v-9.467h-.12l-3.765 9.396H41.75l-3.764-9.432h-.121v9.503h-2.983V95.453Zm20.808 14.545h-3.296l5.022-14.545h3.963l5.014 14.545h-3.296l-3.643-11.221h-.114l-3.65 11.221Zm-.206-5.717h7.784v2.4h-7.784v-2.4Zm21.621-4.127a3.19 3.19 0 0 0-.42-.916c-.18-.27-.4-.497-.66-.681a2.834 2.834 0 0 0-.88-.434 3.71 3.71 0 0 0-1.087-.149c-.743 0-1.397.185-1.96.554-.559.37-.995.907-1.307 1.612-.313.701-.469 1.558-.469 2.571 0 1.014.154 1.875.462 2.586.308.71.743 1.252 1.307 1.626.563.369 1.228.554 1.995.554.696 0 1.29-.123 1.783-.369a2.647 2.647 0 0 0 1.136-1.059c.266-.454.398-.992.398-1.612l.625.092h-3.75v-2.315h6.087v1.833c0 1.278-.27 2.376-.81 3.295a5.514 5.514 0 0 1-2.23 2.116c-.947.493-2.031.739-3.253.739-1.364 0-2.561-.301-3.594-.902-1.032-.606-1.837-1.465-2.414-2.578-.573-1.117-.86-2.443-.86-3.977 0-1.179.17-2.23.512-3.154.345-.928.828-1.714 1.449-2.358a6.26 6.26 0 0 1 2.166-1.47 7.019 7.019 0 0 1 2.677-.504c.824 0 1.591.12 2.301.362.71.237 1.34.573 1.89 1.009a5.46 5.46 0 0 1 1.356 1.555c.35.597.575 1.255.675 1.974h-3.125Zm5.57 9.844V95.453h9.8v2.535H85.75v3.466h6.222v2.536H85.75v3.473h6.754v2.535h-9.83Z"></path><path fill="#00AEC6" d="M52.15 73.204H30.065a8.165 8.165 0 0 1-8.155-8.155V42.964a8.165 8.165 0 0 1 8.155-8.155H52.15a8.16 8.16 0 0 1 8.15 8.155v22.085a8.16 8.16 0 0 1-8.15 8.155Zm-22.085-34.79a4.555 4.555 0 0 0-4.55 4.55v22.085a4.555 4.555 0 0 0 4.55 4.55H52.15a4.55 4.55 0 0 0 4.545-4.55V42.964a4.55 4.55 0 0 0-4.545-4.55H30.065Z"></path><path fill="#00AEC6" d="M58.5 60.85v4.2a6.355 6.355 0 0 1-6.35 6.35H30.065a6.35 6.35 0 0 1-6.35-6.35V58c3.535-.76 8.92-1 15.455 1.61l4.05-3.86 2.76 7s.74-2.575 3.13-2.21c2.39.365 6.26 1.66 7.915.555a2.13 2.13 0 0 1 1.475-.245Zm-7.734-13.374a2.455 2.455 0 1 0 0-4.91 2.455 2.455 0 0 0 0 4.91Z"></path></svg>