<svg xmlns="http://www.w3.org/2000/svg" viewBox="0 0 100 120" fill="none" class="w-auto h-full shrink-0"><path fill="#00C650" d="M69.832 24.624a10.32 10.32 0 0 1-10.31-10.31V0H13.456A13.455 13.455 0 0 0 0 13.454v81.107a13.455 13.455 0 0 0 13.454 13.455h55.298a13.456 13.456 0 0 0 13.455-13.455V24.624H69.832Z" opacity="0.3"></path><path fill="#00C650" d="M82.207 24.624H69.832a10.32 10.32 0 0 1-10.31-10.31V0l22.685 24.624ZM91.966 85.3H29.45a8.03 8.03 0 0 0-8.03 8.03v18.64a8.03 8.03 0 0 0 8.03 8.029h62.517a8.03 8.03 0 0 0 8.03-8.029V93.33a8.03 8.03 0 0 0-8.03-8.03Z"></path><path fill="#fff" d="M43.713 106.684v3.635h-3.765v-3.635h3.765Zm11.015 3.636-3.165-4.68-2.724 4.68h-4.166l4.805-7.74-4.955-7.295h4.316l3.084 4.53 2.66-4.53h4.145l-4.74 7.57 5.06 7.465h-4.32Zm15.919-2.041a4.28 4.28 0 0 1-1.785 1.595 6.316 6.316 0 0 1-2.86.595 6.71 6.71 0 0 1-4.17-1.235 4.471 4.471 0 0 1-1.785-3.445h3.87c.028.507.244.985.605 1.34.36.336.838.516 1.33.5a1.522 1.522 0 0 0 1.105-.385 1.332 1.332 0 0 0 .405-1 1.313 1.313 0 0 0-.375-.955 2.904 2.904 0 0 0-.925-.63 22.16 22.16 0 0 0-1.53-.585 18.643 18.643 0 0 1-2.33-.945 4.25 4.25 0 0 1-1.55-1.36 3.914 3.914 0 0 1-.65-2.35 4.001 4.001 0 0 1 .68-2.32 4.31 4.31 0 0 1 1.885-1.5 6.82 6.82 0 0 1 2.755-.5 6.165 6.165 0 0 1 4 1.195 4.546 4.546 0 0 1 1.67 3.275h-3.935a2 2 0 0 0-.54-1.18 1.592 1.592 0 0 0-1.18-.44 1.535 1.535 0 0 0-1.035.34 1.26 1.26 0 0 0-.39 1 1.27 1.27 0 0 0 .35.905c.25.26.549.466.88.605.355.155.865.355 1.53.595.812.265 1.602.589 2.365.97a4.599 4.599 0 0 1 1.57 1.39 4 4 0 0 1 .66 2.385 4.13 4.13 0 0 1-.62 2.14Zm6.265-.744h4.87v2.785h-8.5V95.285h3.64l-.01 12.25Z"></path><path fill="#00C650" d="M59.443 75.419H22.784c-3.175 0-5.76-3.16-5.76-7.05V41.775c0-3.885 2.585-7.044 5.76-7.044h36.674c3.17 0 5.755 3.16 5.755 7.044V68.37c-.015 3.89-2.6 7.05-5.77 7.05ZM22.784 38.33c-1.555 0-2.815 1.545-2.815 3.445V68.37c0 1.9 1.26 3.445 2.815 3.445h36.674c1.55 0 2.81-1.545 2.81-3.445V41.775c0-1.9-1.26-3.445-2.81-3.445H22.784Z"></path><path fill="#00C650" d="M63.727 59.402H18.484v3.605h45.243v-3.605Zm0-12.359H18.484v3.605h45.243v-3.605Z"></path><path fill="#00C650" d="M52.138 36.527h-3.605v37.084h3.605V36.527Zm-18.465 0h-3.605v37.084h3.605V36.527Z"></path></svg>