<svg xmlns="http://www.w3.org/2000/svg" viewBox="0 0 40 40" fill="none" class="w-10 h-auto"><path fill="#FFA000" d="M34.167 4.168H5.833a4.157 4.157 0 0 0-4.126 4.708.833.833 0 0 0 1.248.612 2.36 2.36 0 0 1 1.212-.32H10.1a2.513 2.513 0 0 1 2.37 1.697l.142.456a4.187 4.187 0 0 0 3.955 2.847h19.266a2.5 2.5 0 0 1 1.245.333.833.833 0 0 0 1.255-.72V8.335a4.167 4.167 0 0 0-4.166-4.167Z"></path><path fill="#FFC107" d="M37.922 13.063a4.141 4.141 0 0 0-2.089-.563H16.567a2.513 2.513 0 0 1-2.37-1.697l-.142-.456A4.187 4.187 0 0 0 10.1 7.5H4.167a3.987 3.987 0 0 0-2.04.539A4.157 4.157 0 0 0 0 11.667v20a4.167 4.167 0 0 0 4.167 4.166h31.666A4.167 4.167 0 0 0 40 31.668v-15a4.138 4.138 0 0 0-2.078-3.604Z"></path></svg>