<svg xmlns="http://www.w3.org/2000/svg" viewBox="0 0 100 120" fill="none" class="w-auto h-full shrink-0"><path fill="#05B3FE" d="M69.832 24.624a10.325 10.325 0 0 1-10.315-10.31V0H13.454A13.455 13.455 0 0 0 0 13.454v81.107a13.455 13.455 0 0 0 13.454 13.455h55.298a13.455 13.455 0 0 0 13.455-13.455V24.624H69.832Z" opacity="0.2"></path><path fill="#05B3FE" d="M38.387 45.07a2.037 2.037 0 1 0 0-4.074 2.037 2.037 0 0 0 0 4.073Zm-10.295 0a2.037 2.037 0 1 0 0-4.074 2.037 2.037 0 0 0 0 4.073Zm-1.246 22.568c0 .052.043.103.103.103h2.286a.105.105 0 0 0 .103-.103v-3.583h-2.492v3.583Zm0-8.122h2.492v3.695h-2.492v-3.695Zm0-4.528h2.492v3.696h-2.492v-3.696Zm2.389-4.538h-2.286a.105.105 0 0 0-.103.102v3.584h2.492v-3.584c0-.043-.043-.094-.103-.103Zm10.295 0h-2.285a.105.105 0 0 0-.103.102v3.584h2.492v-3.584c0-.043-.043-.094-.103-.103Zm-2.388 4.538h2.492v3.696h-2.492v-3.696Zm0 4.528h2.492v3.695h-2.492v-3.695Zm0 8.122c0 .052.043.103.103.103h2.286a.105.105 0 0 0 .103-.103v-3.583h-2.492v3.583Zm17.006-4.314-2.458.421.602 3.558c.009.035.034.06.043.069.017.008.043.026.077.017l2.252-.387a.157.157 0 0 0 .069-.043c.008-.017.025-.043.017-.077l-.602-3.558Zm-.764-4.469-2.458.413.618 3.644 2.458-.413-.618-3.644Zm-3.22-4.039 2.457-.416.617 3.644-2.457.416-.617-3.644Zm1.724-4.785c-.009-.06-.06-.103-.12-.086l-2.252.387c-.043.008-.06.034-.069.043-.008.017-.026.043-.017.077l.602 3.532 2.458-.42-.602-3.533Zm-.481-7.565a2.043 2.043 0 0 0-2.011-1.685 2.4 2.4 0 0 0-.344.026 2.024 2.024 0 0 0-1.659 2.346c.095.533.387 1.006.826 1.315.447.318.98.438 1.52.344a2.04 2.04 0 0 0 1.668-2.346Z"></path><path fill="#05B3FE" d="m58.617 68.946-5.345-31.47a1.126 1.126 0 0 0-1.307-.92l-7.081 1.203a1.139 1.139 0 0 0-.937.997v.25c0 .017.009.042.009.06l5.354 31.453c.103.61.687 1.031 1.306.928l7.081-1.203a1.14 1.14 0 0 0 .413-.155 1.126 1.126 0 0 0 .507-1.143ZM46.568 43.302a2.879 2.879 0 0 1 2.355-3.317 2.88 2.88 0 0 1 3.317 2.355 2.88 2.88 0 0 1-2.355 3.317c-.171.017-.335.026-.49.034a2.865 2.865 0 0 1-2.827-2.389Zm8.242 24.536-2.252.386c-.051 0-.111.009-.163.009a.962.962 0 0 1-.542-.172.937.937 0 0 1-.386-.61l-.68-3.98-.755-4.45v-.026l-.757-4.46-.67-3.937a.936.936 0 0 1 .163-.704.937.937 0 0 1 .61-.387l2.252-.387a.955.955 0 0 1 1.091.774l.67 3.944.757 4.469.756 4.469.68 3.97a.955.955 0 0 1-.774 1.092ZM41.971 37.293h-7.184a1.13 1.13 0 0 0-1.126 1.023v32.106a1.131 1.131 0 0 0 1.126 1.031h7.184c.628 0 1.135-.507 1.135-1.134V38.428c0-.628-.507-1.135-1.135-1.135Zm-1.504 21.802c0 .035 0 .06-.008.086v4.366c.008.026.008.06.008.086 0 .026 0 .06-.008.086v3.919a.93.93 0 0 1-.937.945h-2.286a.939.939 0 0 1-.937-.937V50.553a.94.94 0 0 1 .937-.937h2.286a.94.94 0 0 1 .937.937v3.919c.008.026.008.06.008.086 0 .034 0 .06-.008.086v4.365a.264.264 0 0 1 .008.086Zm-2.08-13.191a2.875 2.875 0 0 1-2.87-2.87 2.875 2.875 0 0 1 2.87-2.87 2.875 2.875 0 0 1 2.871 2.87c0 1.58-1.29 2.87-2.87 2.87Zm-5.577-7.596a1.124 1.124 0 0 0-1.126-1.023H24.5v.009c-.628 0-1.135.507-1.135 1.134V70.32c0 .627.507 1.134 1.135 1.134h7.184c.593 0 1.074-.456 1.126-1.031v-.112c0-.026 0-.06.008-.086v-31.72c-.008-.025-.008-.051-.008-.086v-.111Zm-2.63 20.797c0 .034 0 .06-.008.086v4.365c.008.026.008.06.008.086 0 .017 0 .043-.008.069v3.927a.94.94 0 0 1-.937.946h-2.286a.939.939 0 0 1-.937-.937V50.554c0-.516.421-.937.937-.937h2.286a.94.94 0 0 1 .937.937v3.919a.31.31 0 0 1 .008.086c0 .025 0 .051-.008.077v4.383a.265.265 0 0 1 .008.086Zm-2.088-13.2a2.875 2.875 0 0 1-2.87-2.87 2.875 2.875 0 0 1 2.87-2.87 2.875 2.875 0 0 1 2.87 2.87c0 1.58-1.289 2.87-2.87 2.87Zm54.115-21.281H69.832a10.325 10.325 0 0 1-10.314-10.31V0l22.689 24.624ZM91.966 85.3H29.45a8.03 8.03 0 0 0-8.03 8.03v18.64a8.03 8.03 0 0 0 8.03 8.029h62.517a8.03 8.03 0 0 0 8.03-8.029V93.33a8.03 8.03 0 0 0-8.03-8.03Z"></path><path fill="#fff" d="M40 95h10.422v2.704h-7.189v3.634h6.807V104h-6.807v6H40V95Zm12.837 0h3.233v15h-3.233V95Zm6.377 15V95h3.233v12.296h6.955V110H59.214Zm12.608-15H82.33v2.704h-7.275v3.444h7.02v2.662h-7.02v3.486H82.5V110H71.822V95Z"></path></svg>