<svg xmlns="http://www.w3.org/2000/svg" viewBox="0 0 629 523" fill="none" class="w-[65%] max-w-[500px] h-auto relative z-[10]"><path fill="#F1F1F1" fill-opacity="0.1" d="M313.134 521.835c151.254 0 273.87-63.767 273.87-142.428s-122.616-142.428-273.87-142.428c-151.254 0-273.87 63.767-273.87 142.428s122.616 142.428 273.87 142.428Z"></path><path fill="#E0E0E0" fill-opacity="0.3" d="M316.458 413.007c-6.417 0-12.934-.275-19.365-.809-50.71-4.244-95.987-24.701-118.184-53.416l-.896-1.14 20.535-15.881.882 1.141c20.42 26.39 67.503 44.118 117.158 44.118 4.639 0 9.307-.158 13.859-.476 30.883-2.151 57.589-11.434 73.601-25.51l-14.451-15.678 51.23-2.887-4.509 53.517-14.654-15.881c-20.463 18.263-52.126 29.726-89.367 32.324-5.232.39-10.564.578-15.839.578Z"></path><path fill="#455A64" d="M256.036 278.571v-20.702l26.923-15.519v20.702l-26.923 15.519Z"></path><path fill="#2C383E" d="m256.036 257.869-33.657-19.403v20.703l33.657 19.403v-20.703Z"></path><path fill="#455A64" d="m256.036 257.869 27.718-15.996-34.452-19.865-27.718 15.996 34.452 19.865Z"></path><path fill="#37474F" d="M256.036 257.869v5.183l27.718-15.996v-5.182l-27.718 15.995Z"></path><path fill="#263238" d="m256.036 263.052 26.923-15.534v1.141l-26.923 15.534v-1.141Z"></path><path fill="#37474F" d="m221.584 238.004 34.452 19.865v5.183l-34.452-19.865v-5.183Z"></path><path fill="#263238" d="m256.036 263.052-33.657-19.417v1.14l33.657 19.418v-1.141Z"></path><path fill="#37474F" d="m264.895 261.031 9.205-5.313c.39-.217.708 0 .708.419v5.428a1.578 1.578 0 0 1-.708 1.241l-9.205 5.313c-.391.231-.708 0-.708-.418v-5.472a1.592 1.592 0 0 1 .708-1.198Z"></path><path fill="#263238" d="m265.488 261.637 8.02-4.62c.26-.144.477 0 .477.275v4.071a1.101 1.101 0 0 1-.477.837l-8.02 4.62c-.26.159-.477 0-.477-.274v-4.072a1.097 1.097 0 0 1 .477-.837Z"></path><path fill="#455A64" d="M256.036 255.271v-20.703l26.923-15.519v20.702l-26.923 15.52Z"></path><path fill="#2C383E" d="m256.036 234.569-33.657-19.403v20.702l33.657 19.403v-20.702Z"></path><path fill="#455A64" d="m256.036 234.568 27.718-15.996-34.452-19.864-27.718 15.995 34.452 19.865Z"></path><path fill="#37474F" d="M256.036 234.568v5.183l27.718-15.996v-5.183l-27.718 15.996Z"></path><path fill="#263238" d="m256.036 239.751 26.923-15.534v1.141l-26.923 15.519v-1.126Z"></path><path fill="#37474F" d="m221.584 214.704 34.452 19.865v5.182l-34.452-19.879v-5.168Z"></path><path fill="#263238" d="m256.036 239.751-33.657-19.417v1.14l33.657 19.403v-1.126Z"></path><path fill="#37474F" d="m264.895 237.687 9.205-5.313c.39-.231.708 0 .708.419v5.428a1.578 1.578 0 0 1-.708 1.242l-9.205 5.298c-.391.231-.708 0-.708-.404v-5.429a1.554 1.554 0 0 1 .708-1.241Z"></path><path fill="#263238" d="m265.488 238.336 8.02-4.62c.26-.158.477 0 .477.275v4.071a1.045 1.045 0 0 1-.477.823l-8.02 4.576c-.26.145-.477 0-.477-.274v-4.057a1.064 1.064 0 0 1 .477-.794Z"></path><path fill="#E0E0E0" d="m281.5 240.588-25.463 14.683-32.198-18.581-.795.462 32.993 18.97 26.258-15.086-.795-.448Z"></path><path fill="#37474F" d="m281.5 240.588-25.463 14.683-32.198-18.581-.795.462 32.993 18.97 26.258-15.086-.795-.448Z"></path><path fill="#D1D1D1" d="M372.978 278.571v-20.702l-26.923-15.519v20.702l26.923 15.519Z"></path><path fill="#929498" d="m372.978 257.869 33.643-19.403v20.703l-33.643 19.403v-20.703Z"></path><path fill="#D1D1D1" d="m372.978 257.869-27.718-15.996 34.438-19.865 27.718 15.996-34.438 19.865Z"></path><path fill="#B3B3B3" d="M372.978 257.869v5.183l-27.718-15.996v-5.182l27.718 15.995Z"></path><path fill="#A3A3A5" d="m372.978 263.052-26.923-15.534v1.141l26.923 15.534v-1.141Z"></path><path fill="#B3B3B3" d="m407.415 238.004-34.437 19.865v5.183l34.437-19.865v-5.183Z"></path><path fill="#A3A3A5" d="m372.978 263.052 33.643-19.417v1.14l-33.643 19.418v-1.141Z"></path><path fill="#B3B3B3" d="m364.119 261.031-9.148-5.313c-.39-.217-.708 0-.708.419v5.428a1.578 1.578 0 0 0 .708 1.241l9.205 5.313c.391.231.708 0 .708-.418v-5.472a1.581 1.581 0 0 0-.765-1.198Z"></path><path fill="#A3A3A5" d="m363.527 261.637-8.021-4.62c-.26-.144-.477 0-.477.275v4.071a1.106 1.106 0 0 0 .477.837l8.021 4.62c.26.159.477 0 .477-.274v-4.072a1.098 1.098 0 0 0-.477-.837Z"></path><path fill="#D1D1D1" d="M372.978 255.271v-20.703l-26.923-15.519v20.702l26.923 15.52Z"></path><path fill="#929498" d="m372.978 234.569 33.643-19.403v20.702l-33.643 19.403v-20.702Z"></path><path fill="#D1D1D1" d="m372.978 234.568-27.718-15.996 34.438-19.864 27.718 15.995-34.438 19.865Z"></path><path fill="#B3B3B3" d="M372.978 234.568v5.183l-27.718-15.996v-5.183l27.718 15.996Z"></path><path fill="#A3A3A5" d="m372.978 239.751-26.923-15.534v1.141l26.923 15.519v-1.126Z"></path><path fill="#B3B3B3" d="m407.415 214.704-34.437 19.865v5.182l34.437-19.879v-5.168Z"></path><path fill="#A3A3A5" d="m372.978 239.751 33.643-19.417v1.14l-33.643 19.403v-1.126Z"></path><path fill="#B3B3B3" d="m364.119 237.687-9.148-5.27c-.39-.231-.708 0-.708.419v5.428a1.578 1.578 0 0 0 .708 1.242l9.205 5.298c.391.231.708 0 .708-.404v-5.429a1.55 1.55 0 0 0-.765-1.284Z"></path><path fill="#A3A3A5" d="m363.527 238.336-8.021-4.62c-.26-.158-.477 0-.477.275v4.071a1.059 1.059 0 0 0 .477.823l8.021 4.634c.26.144.477 0 .477-.274v-4.115a1.078 1.078 0 0 0-.477-.794Z"></path><path fill="#E0E0E0" d="m347.5 240.588 25.478 14.683 32.198-18.581.78.462-32.978 18.97-26.273-15.086.795-.448Z"></path><path fill="#B3B3B3" d="m347.5 240.588 25.478 14.683 32.198-18.581.78.462-32.978 18.97-26.273-15.086.795-.448Z"></path><path fill="#263238" d="m45.97 362.435 32.169-18.566v-68.935l-32.17 18.565v68.936Z"></path><path fill="#37474F" d="M45.97 293.499 0 266.993v68.921l45.97 26.521v-68.936Z"></path><path fill="#455A64" d="m0 266.993 45.97 26.506 32.17-18.565-45.957-26.506L0 266.993Z"></path><path fill="#263238" d="M42.213 328.451 5.448 307.243v25.539l-.852.491 36.779 21.207.838-.491v-25.538Z"></path><path fill="#455A64" d="m41.375 328.941-36.78-21.207v25.538l36.78 21.208v-25.539Z"></path><path fill="#263238" d="m26.923 324.957-6.214-3.537c-.81-.477-1.445-.26-1.445.476a2.883 2.883 0 0 0 1.445 2.166l6.257 3.609c.81.476 1.445.26 1.445-.477a2.886 2.886 0 0 0-1.488-2.237Zm15.29-27.315L5.448 276.42v25.539l-.852.491 36.779 21.207.838-.49v-25.525Z"></path><path fill="#455A64" d="m41.375 298.119-36.78-21.207v25.538l36.78 21.208v-25.539Z"></path><path fill="#263238" d="m26.923 294.149-6.257-3.609c-.81-.477-1.445-.26-1.445.476a2.886 2.886 0 0 0 1.445 2.166l6.257 3.609c.81.476 1.446.26 1.446-.477a2.886 2.886 0 0 0-1.446-2.165Z"></path><path fill="#B3B3B3" d="m583.045 362.435-32.184-18.566v-68.935l32.184 18.565v68.936Z"></path><path fill="#0F172A" d="m583.045 362.435-32.184-18.566v-68.935l32.184 18.565v68.936Z" opacity="0.2"></path><path fill="#B3B3B3" d="m583.045 293.499 45.956-26.506v68.921l-45.956 26.521v-68.936ZM629 266.993l-45.955 26.506-32.184-18.565 45.97-26.506L629 266.993Z"></path><path fill="#fff" d="m629 266.993-45.955 26.506-32.184-18.565 45.97-26.506L629 266.993Z" opacity="0.4"></path><path fill="#B3B3B3" d="m586.788 328.451 36.779-21.208v25.539l.838.491-36.764 21.207-.853-.491v-25.538Z"></path><path fill="#0F172A" d="m586.788 328.451 36.779-21.208v25.539l.838.491-36.764 21.207-.853-.491v-25.538Z" opacity="0.1"></path><path fill="#B3B3B3" d="m587.641 328.941 36.764-21.207v25.538l-36.764 21.208v-25.539Z"></path><path fill="#fff" d="m587.641 328.941 36.764-21.207v25.538l-36.764 21.208v-25.539Z" opacity="0.4"></path><path fill="#B3B3B3" d="m602.092 324.957 6.214-3.537c.809-.477 1.445-.26 1.445.476a2.88 2.88 0 0 1-1.445 2.166l-6.257 3.609c-.81.476-1.445.26-1.445-.477a2.878 2.878 0 0 1 1.488-2.237Z"></path><path fill="#0F172A" d="m602.092 324.957 6.214-3.537c.809-.477 1.445-.26 1.445.476a2.88 2.88 0 0 1-1.445 2.166l-6.257 3.609c-.81.476-1.445.26-1.445-.477a2.878 2.878 0 0 1 1.488-2.237Z" opacity="0.1"></path><path fill="#B3B3B3" d="m586.788 297.642 36.779-21.222v25.539l.838.491-36.764 21.207-.853-.49v-25.525Z"></path><path fill="#0F172A" d="m586.788 297.642 36.779-21.222v25.539l.838.491-36.764 21.207-.853-.49v-25.525Z" opacity="0.1"></path><path fill="#B3B3B3" d="m587.641 298.119 36.764-21.207v25.538l-36.764 21.208v-25.539Z"></path><path fill="#fff" d="m587.641 298.119 36.764-21.207v25.538l-36.764 21.208v-25.539Z" opacity="0.4"></path><path fill="#B3B3B3" d="m602.092 294.149 6.257-3.609c.809-.477 1.445-.26 1.445.476a2.88 2.88 0 0 1-1.445 2.166l-6.257 3.609c-.81.476-1.446.26-1.446-.477a2.895 2.895 0 0 1 1.446-2.165Z"></path><path fill="#0F172A" d="m602.092 294.149 6.257-3.609c.809-.477 1.445-.26 1.445.476a2.88 2.88 0 0 1-1.445 2.166l-6.257 3.609c-.81.476-1.446.26-1.446-.477a2.895 2.895 0 0 1 1.446-2.165Z" opacity="0.1"></path><path fill="#27DEBF" d="m393.383 273.432 150.44 86.78 9.148 5.269.419.217c.246.122.502.223.766.303.307.121.627.209.954.26.208.053.421.092.635.115a.182.182 0 0 0 .13 0c.27.015.54.015.81 0a4.924 4.924 0 0 0 2.399-.52 8.94 8.94 0 0 0 3.425-5.442l25.348-131.577a4.34 4.34 0 0 0 .086-.866 3.795 3.795 0 0 0 0-.707 6.418 6.418 0 0 0-.245-1.069 11.49 11.49 0 0 0-.448-1.039l-.376-.621a7.05 7.05 0 0 0-.52-.635 5.492 5.492 0 0 0-.521-.491 5.64 5.64 0 0 0-.607-.419l-159.63-92.005a3.971 3.971 0 0 0-.42-.217l-.448-.202a.962.962 0 0 0-.216-.072 2 2 0 0 0-.578 0 7.23 7.23 0 0 0-2.891 1.328l-3.54 2.079a1.832 1.832 0 0 0-.708.505 2.722 2.722 0 0 0-.651 1.083 2.9 2.9 0 0 0-.144.549L390.637 267.6a5.964 5.964 0 0 0 2.746 5.832Z"></path><path fill="#27DEBF" d="m393.383 273.432 150.44 86.78 9.148 5.269.419.217c.246.122.502.223.766.303.307.121.627.209.954.26.208.053.421.092.635.115a.182.182 0 0 0 .13 0c.27.015.54.015.81 0a4.924 4.924 0 0 0 2.399-.52 8.94 8.94 0 0 0 3.425-5.442l25.348-131.577a4.34 4.34 0 0 0 .086-.866 3.795 3.795 0 0 0 0-.707 6.418 6.418 0 0 0-.245-1.069 11.49 11.49 0 0 0-.448-1.039l-.376-.621a7.05 7.05 0 0 0-.52-.635 5.492 5.492 0 0 0-.521-.491 5.64 5.64 0 0 0-.607-.419l-159.63-92.005a3.971 3.971 0 0 0-.42-.217l-.448-.202a.962.962 0 0 0-.216-.072 2 2 0 0 0-.578 0 7.23 7.23 0 0 0-2.891 1.328l-3.54 2.079a1.832 1.832 0 0 0-.708.505 2.722 2.722 0 0 0-.651 1.083 2.9 2.9 0 0 0-.144.549L390.637 267.6a5.964 5.964 0 0 0 2.746 5.832Z"></path><path fill="#263238" d="M553.39 365.697a6.757 6.757 0 0 0 5.694.217 8.939 8.939 0 0 0 3.425-5.443l25.347-131.576a5.773 5.773 0 0 0-.664-3.71l-5.333 3.089a5.859 5.859 0 0 1 .679 3.71l-25.391 131.591a2.613 2.613 0 0 1-3.757 2.122Z"></path><path fill="#37474F" d="m421.101 131.764-3.54 2.079a2.809 2.809 0 0 1 2.673.231l159.573 92.063a5.46 5.46 0 0 1 2.009 2.152l5.376-3.09-.376-.621a7.342 7.342 0 0 0-.52-.635 5.308 5.308 0 0 0-1.127-.909l-159.573-92.049a5.977 5.977 0 0 0-.868-.419.962.962 0 0 0-.216-.072 2 2 0 0 0-.578 0 7.227 7.227 0 0 0-2.833 1.27Z"></path><path fill="#455A64" d="m421.101 131.764-3.54 2.079a2.809 2.809 0 0 1 2.673.231l159.573 92.063a5.46 5.46 0 0 1 2.009 2.152l5.376-3.09-.376-.621a7.342 7.342 0 0 0-.52-.635 5.308 5.308 0 0 0-1.127-.909l-159.573-92.049a5.977 5.977 0 0 0-.868-.419.962.962 0 0 0-.216-.072 2 2 0 0 0-.578 0 7.227 7.227 0 0 0-2.833 1.27Z" opacity="0.5"></path><path fill="#27DEBF" d="m557.147 363.561 25.348-131.563a5.969 5.969 0 0 0-2.688-5.875l-159.573-92.035a2.65 2.65 0 0 0-3.716.611c-.27.382-.434.829-.475 1.295l-25.348 131.577a5.983 5.983 0 0 0 .481 3.332 5.986 5.986 0 0 0 2.207 2.543l159.573 92.035a2.663 2.663 0 0 0 3.713-.628c.271-.382.435-.827.478-1.292Z"></path><path fill="#37474F" d="m557.147 363.561 25.348-131.563a5.969 5.969 0 0 0-2.688-5.875l-159.573-92.035a2.65 2.65 0 0 0-3.716.611c-.27.382-.434.829-.475 1.295l-25.348 131.577a5.983 5.983 0 0 0 .481 3.332 5.986 5.986 0 0 0 2.207 2.543l159.573 92.035a2.663 2.663 0 0 0 3.713-.628c.271-.382.435-.827.478-1.292Z"></path><path fill="#263238" d="m557.147 363.561 25.348-131.563a5.969 5.969 0 0 0-2.688-5.875l-159.573-92.035a2.65 2.65 0 0 0-3.716.611c-.27.382-.434.829-.475 1.295l-25.348 131.577a5.983 5.983 0 0 0 .481 3.332 5.986 5.986 0 0 0 2.207 2.543l159.573 92.035a2.663 2.663 0 0 0 3.713-.628c.271-.382.435-.827.478-1.292Z" opacity="0.5"></path><path fill="#27DEBF" d="m436.174 268.119 108.227 62.425 6.575 3.797.304.158c.178.085.361.157.549.217.225.084.457.147.694.188.146.038.296.062.447.072a.132.132 0 0 0 .102 0c.192.014.385.014.578 0a3.576 3.576 0 0 0 1.734-.39 6.443 6.443 0 0 0 2.457-3.912l18.237-94.59a2.93 2.93 0 0 0 0-.621 2.999 2.999 0 0 0 0-.519 3.533 3.533 0 0 0-.173-.78 6.56 6.56 0 0 0-.318-.736c-.087-.145-.173-.303-.275-.448a2.769 2.769 0 0 0-.375-.447 1.788 1.788 0 0 0-.376-.361 3.745 3.745 0 0 0-.419-.303l-114.788-66.222-.332-.144-.333-.144a.387.387 0 0 0-.144 0 1.401 1.401 0 0 0-.419 0 5.146 5.146 0 0 0-2.038.967l-2.544 1.443a1.459 1.459 0 0 0-.52.361 2.01 2.01 0 0 0-.462.78 2.482 2.482 0 0 0-.101.39l-18.238 94.662a4.321 4.321 0 0 0 1.951 4.157Z"></path><path fill="#27DEBF" d="m436.174 268.119 108.227 62.425 6.575 3.797.304.158c.178.085.361.157.549.217.225.084.457.147.694.188.146.038.296.062.447.072a.132.132 0 0 0 .102 0c.192.014.385.014.578 0a3.576 3.576 0 0 0 1.734-.39 6.443 6.443 0 0 0 2.457-3.912l18.237-94.59a2.93 2.93 0 0 0 0-.621 2.999 2.999 0 0 0 0-.519 3.533 3.533 0 0 0-.173-.78 6.56 6.56 0 0 0-.318-.736c-.087-.145-.173-.303-.275-.448a2.769 2.769 0 0 0-.375-.447 1.788 1.788 0 0 0-.376-.361 3.745 3.745 0 0 0-.419-.303l-114.788-66.222-.332-.144-.333-.144a.387.387 0 0 0-.144 0 1.401 1.401 0 0 0-.419 0 5.146 5.146 0 0 0-2.038.967l-2.544 1.443a1.459 1.459 0 0 0-.52.361 2.01 2.01 0 0 0-.462.78 2.482 2.482 0 0 0-.101.39l-18.238 94.662a4.321 4.321 0 0 0 1.951 4.157Z"></path><path fill="#E0E0E0" d="M551.28 334.5a4.897 4.897 0 0 0 4.104.144 6.434 6.434 0 0 0 2.457-3.912l18.238-94.648a4.33 4.33 0 0 0-.477-2.67l-3.858 2.223c.456.811.629 1.751.491 2.671l-18.252 94.661a1.882 1.882 0 0 1-.946 1.48 1.882 1.882 0 0 1-1.757.051Z"></path><path fill="#FAFAFA" d="m456.131 166.211-2.543 1.443a1.96 1.96 0 0 1 1.907.173l114.803 66.265c.62.365 1.122.902 1.445 1.545l3.873-2.223c-.087-.145-.173-.304-.275-.448a2.769 2.769 0 0 0-.375-.447 3.476 3.476 0 0 0-.795-.665l-114.817-66.206a5.15 5.15 0 0 0-.636-.304.435.435 0 0 0-.144 0 1.47 1.47 0 0 0-.419 0 5.168 5.168 0 0 0-2.024.867Z"></path><path fill="#F5F5F5" d="m553.983 332.969 18.238-94.662a4.33 4.33 0 0 0-1.937-4.215l-114.788-66.221a1.905 1.905 0 0 0-2.701.487 1.893 1.893 0 0 0-.319.956l-18.224 94.662a4.33 4.33 0 0 0 1.923 4.215l114.802 66.222a1.908 1.908 0 0 0 3.006-1.444Z"></path><path fill="#EBEBEB" d="M469.138 240.285a3.318 3.318 0 0 0 1.445-2.642V65.514a3.416 3.416 0 0 0-1.561-2.7L360.752.39a2.89 2.89 0 0 0-4.48 2.598v172.13c.027.541.183 1.068.455 1.537.271.47.65.868 1.106 1.162l108.198 62.425a3.363 3.363 0 0 0 3.107.043Z"></path><path fill="#FAFAFA" d="M356.286 2.715c.145-.794.78-1.069 1.561-.621l108.212 62.352c.464.286.843.69 1.099 1.17l2.89-1.69a3.378 3.378 0 0 0-1.113-1.184L360.752.405a3.358 3.358 0 0 0-3.035 0 3.503 3.503 0 0 0-1.431 2.31Z"></path><path fill="#E0E0E0" d="M466.248 240.343a3.363 3.363 0 0 0 2.818 0 3.312 3.312 0 0 0 1.445-2.642V65.514a3.204 3.204 0 0 0-.448-1.53l-2.89 1.689c.286.46.445.989.462 1.53v172.13c.058.909-.621 1.342-1.387 1.01Z"></path><path fill="#F5F5F5" fill-opacity="0.1" d="m466.045 240.242-108.183-62.425a3.42 3.42 0 0 1-1.561-2.699V2.988c0-.996.693-1.443 1.561-.895l108.183 62.353a3.416 3.416 0 0 1 1.561 2.7v172.186c0 .997-.694 1.401-1.561.91Z"></path><path fill="#455A64" d="M459.715 142.91c0 1.328-1.199 1.717-2.659.866l-90.22-51.973a5.358 5.358 0 0 1-2.659-3.926c0-1.329 1.199-1.718 2.659-.867l90.22 51.973a5.34 5.34 0 0 1 1.788 1.653c.462.681.76 1.459.871 2.274Zm0 14.378c0 1.314-1.199 1.704-2.659.867l-90.22-51.973a5.315 5.315 0 0 1-2.659-3.927c0-1.328 1.199-1.703 2.659-.866l90.22 52.045a5.316 5.316 0 0 1 2.659 3.854Zm0 14.365c0 1.328-1.199 1.718-2.659.866l-90.22-51.972a5.36 5.36 0 0 1-2.659-3.927c0-1.328 1.199-1.718 2.659-.866l90.22 51.972a5.354 5.354 0 0 1 2.659 3.927Zm0 14.379c0 1.328-1.199 1.703-2.659.866l-90.22-51.972a5.308 5.308 0 0 1-2.659-3.927c0-1.314 1.199-1.704 2.659-.866l90.22 52.044a5.316 5.316 0 0 1 2.659 3.855Zm0-86.245c0 1.328-1.199 1.718-2.659.866l-90.22-51.972a5.36 5.36 0 0 1-2.659-3.927c0-1.328 1.199-1.718 2.659-.866l90.22 51.972a5.351 5.351 0 0 1 2.659 3.927Zm0 14.379c0 1.328-1.199 1.703-2.659.866l-90.22-51.972a5.315 5.315 0 0 1-2.659-3.927c0-1.314 1.199-1.704 2.659-.852l90.22 51.972a5.349 5.349 0 0 1 2.659 3.913Zm0-28.729c0 1.328-1.199 1.718-2.659.866l-90.22-51.972a5.36 5.36 0 0 1-2.659-3.927c0-1.328 1.199-1.718 2.659-.866l90.22 51.972a5.35 5.35 0 0 1 2.659 3.927Zm0 43.108c0 1.314-1.199 1.704-2.659.852l-90.22-51.972a5.343 5.343 0 0 1-2.659-3.927c0-1.329 1.199-1.718 2.659-.867l90.22 51.973a5.35 5.35 0 0 1 2.659 3.941Zm0 71.866c0 1.314-1.199 1.704-2.659.852l-90.22-51.972a5.363 5.363 0 0 1-2.659-3.927c0-1.328 1.199-1.718 2.659-.866l90.22 51.972a5.35 5.35 0 0 1 2.659 3.941Zm0 14.365c0 1.328-1.199 1.718-2.659.866l-90.22-51.972a5.328 5.328 0 0 1-2.659-3.927c0-1.314 1.199-1.704 2.659-.852l90.22 51.972a5.33 5.33 0 0 1 2.659 3.913Z" opacity="0.3"></path><path fill="#27DEBF" d="M386.938 148.251a2.528 2.528 0 0 1 .983-2.252c.077-.06.159-.113.246-.159l5.173-3.002a2.5 2.5 0 0 1 2.515.259l103.429 59.581 3.021-12.141a3.354 3.354 0 0 1 1.445-1.978l5.376-3.133a3.165 3.165 0 0 1 3.266.087l44.004 25.365a7.902 7.902 0 0 1 3.584 6.193v146.605a2.541 2.541 0 0 1-.968 2.253l-5.535 3.219a2.579 2.579 0 0 1-2.442-.303L390.45 276.204a7.908 7.908 0 0 1-3.584-6.193l.072-121.76Z"></path><path fill="#455A64" d="M503.821 188.501a3.173 3.173 0 0 1 3.209.144l44.048 25.366a7.516 7.516 0 0 1 2.529 2.67l5.361-3.118a7.219 7.219 0 0 0-2.529-2.671l-43.947-25.365a3.199 3.199 0 0 0-3.28-.087l-5.391 3.061ZM388.21 145.84a2.744 2.744 0 0 1 2.356.347l103.486 59.739a3.132 3.132 0 0 0 2.881.302 3.128 3.128 0 0 0 1.888-2.193l.477-1.3-103.414-59.594a3.164 3.164 0 0 0-1.59-.477 1.914 1.914 0 0 0-.925.231l-5.159 2.945Z"></path><path fill="#37474F" d="m386.938 148.266-.072 121.745a7.908 7.908 0 0 0 3.584 6.193l161.062 92.857c.321.185.686.283 1.057.283a2.117 2.117 0 0 0 1.828-1.06c.185-.321.281-.686.28-1.056V220.204a7.214 7.214 0 0 0-1.041-3.508 7.52 7.52 0 0 0-2.529-2.671l-44.019-25.423a3.204 3.204 0 0 0-3.208-.145h-.101a3.34 3.34 0 0 0-1.446 1.978l-3.02 12.127-.477 1.314a3.112 3.112 0 0 1-1.889 2.193 3.127 3.127 0 0 1-2.88-.302l-103.545-59.566a2.662 2.662 0 0 0-2.341-.346l-.144.086h-.087a2.569 2.569 0 0 0-.815 1.028 2.564 2.564 0 0 0-.197 1.297Z"></path><path fill="#B3B3B3" d="M461.999 265.275a1.72 1.72 0 0 1 2.268.809l4.798 10.105v-17.973a1.697 1.697 0 0 1 1.01-1.715 1.7 1.7 0 0 1 1.948.41 1.7 1.7 0 0 1 .438 1.305v21.655l5.174-4.966a1.679 1.679 0 0 1 2.399 0 1.7 1.7 0 0 1 0 2.396l-8.035 7.724a1.681 1.681 0 0 1-1.445.447 1.666 1.666 0 0 1-1.214-.953l-8.05-16.992a1.7 1.7 0 0 1 .709-2.252Z"></path><path fill="#B3B3B3" d="M482.317 269.13a1.69 1.69 0 0 1-1.705-1.689V257.22l-19.697-11.362v8.272a1.686 1.686 0 0 1-1.691 1.689 1.694 1.694 0 0 1-1.691-1.689v-11.203a1.669 1.669 0 0 1 .838-1.444 1.693 1.693 0 0 1 1.706 0l23.122 13.311a1.687 1.687 0 0 1 .853 1.444v11.188a1.682 1.682 0 0 1-.506 1.22 1.696 1.696 0 0 1-1.229.484Z"></path><path fill="#263238" d="M553.361 369.191a.329.329 0 0 0 .159 0l5.535-3.205a2.621 2.621 0 0 0 .968-2.281V217.086a7.21 7.21 0 0 0-1.054-3.523l-5.362 3.118a7.212 7.212 0 0 1 1.055 3.523v147.053a2.08 2.08 0 0 1-1.301 1.934Z"></path><path fill="#B3B3B3" d="m235.631 273.432-150.44 86.779-9.133 5.27-.42.216a4.915 4.915 0 0 1-.765.304 4.498 4.498 0 0 1-.954.259 4.427 4.427 0 0 1-.636.116.194.194 0 0 1-.13 0c-.27.015-.54.015-.81 0a4.924 4.924 0 0 1-2.398-.52 8.936 8.936 0 0 1-3.425-5.442L41.158 228.895a4.32 4.32 0 0 1-.087-.866 3.894 3.894 0 0 1 0-.708c.05-.362.133-.72.245-1.068.132-.354.282-.701.448-1.04l.376-.62c.161-.222.335-.434.52-.636a5.58 5.58 0 0 1 .52-.49c.194-.153.397-.293.608-.419l159.573-92.034c.135-.081.275-.153.419-.217l.448-.202a.922.922 0 0 1 .217-.072 2 2 0 0 1 .578 0 7.231 7.231 0 0 1 2.89 1.328l3.541 2.079c.273.109.516.282.708.505.299.305.521.676.65 1.083.066.178.114.361.145.549l25.362 131.562a5.956 5.956 0 0 1-2.688 5.803Z"></path><path fill="#B3B3B3" d="m235.631 273.432-150.44 86.779-9.133 5.27-.42.216a4.915 4.915 0 0 1-.765.304 4.498 4.498 0 0 1-.954.259 4.427 4.427 0 0 1-.636.116.194.194 0 0 1-.13 0c-.27.015-.54.015-.81 0a4.924 4.924 0 0 1-2.398-.52 8.936 8.936 0 0 1-3.425-5.442L41.158 228.895a4.32 4.32 0 0 1-.087-.866 3.894 3.894 0 0 1 0-.708c.05-.362.133-.72.245-1.068.132-.354.282-.701.448-1.04l.376-.62c.161-.222.335-.434.52-.636a5.58 5.58 0 0 1 .52-.49c.194-.153.397-.293.608-.419l159.573-92.034c.135-.081.275-.153.419-.217l.448-.202a.922.922 0 0 1 .217-.072 2 2 0 0 1 .578 0 7.231 7.231 0 0 1 2.89 1.328l3.541 2.079c.273.109.516.282.708.505.299.305.521.676.65 1.083.066.178.114.361.145.549l25.362 131.562a5.956 5.956 0 0 1-2.688 5.803Z"></path><path fill="#0F172A" d="M75.624 365.697a6.76 6.76 0 0 1-5.694.217 8.935 8.935 0 0 1-3.425-5.443L41.158 228.895a5.768 5.768 0 0 1 .664-3.71l5.333 3.089a5.856 5.856 0 0 0-.68 3.71l25.392 131.591a2.61 2.61 0 0 0 1.319 2.051 2.611 2.611 0 0 0 2.438.071Z" opacity="0.2"></path><path fill="#fff" d="m207.913 131.764 3.541 2.079a2.812 2.812 0 0 0-2.674.231L49.207 226.137a5.467 5.467 0 0 0-2.052 2.137l-5.376-3.089.376-.621a7.05 7.05 0 0 1 .52-.635c.332-.354.712-.66 1.128-.91l159.573-92.034c.277-.163.567-.303.867-.419a.98.98 0 0 1 .216-.072 2 2 0 0 1 .578 0 7.218 7.218 0 0 1 2.876 1.27Z" opacity="0.1"></path><path fill="#B3B3B3" d="M71.866 363.561 46.52 231.999a5.972 5.972 0 0 1 2.688-5.862l159.573-92.034a2.642 2.642 0 0 1 2.652-.268 2.637 2.637 0 0 1 1.539 2.174l25.347 131.576a5.971 5.971 0 0 1-2.688 5.876l-159.573 92.02a2.66 2.66 0 0 1-4.19-1.92Z"></path><path fill="#0F172A" d="M71.866 363.561 46.52 231.999a5.972 5.972 0 0 1 2.688-5.862l159.573-92.034a2.642 2.642 0 0 1 2.652-.268 2.637 2.637 0 0 1 1.539 2.174l25.347 131.576a5.971 5.971 0 0 1-2.688 5.876l-159.573 92.02a2.66 2.66 0 0 1-4.19-1.92Z" opacity="0.15"></path><path fill="#B3B3B3" d="M192.84 268.119 84.613 330.544l-6.576 3.869-.303.159a4.323 4.323 0 0 1-.55.216 3.785 3.785 0 0 1-.693.188 2.427 2.427 0 0 1-.448.072.126.126 0 0 1-.05.01.126.126 0 0 1-.051-.01 3.984 3.984 0 0 1-.578 0 3.574 3.574 0 0 1-1.735-.39 6.434 6.434 0 0 1-2.456-3.912l-18.238-94.662a3.011 3.011 0 0 1 0-.621 3.145 3.145 0 0 1 0-.519 3.58 3.58 0 0 1 .173-.78 6.95 6.95 0 0 1 .318-.736c.087-.145.174-.303.275-.448.11-.162.235-.312.376-.447a1.76 1.76 0 0 1 .375-.361c.133-.111.273-.212.42-.303l114.802-66.207.318-.159.332-.144a.393.393 0 0 1 .145 0c.139-.021.28-.021.419 0a5.148 5.148 0 0 1 2.037.967l2.544 1.443c.198.081.376.204.52.361.212.222.37.488.463.78.043.127.077.257.101.39l18.238 94.662a4.331 4.331 0 0 1-1.951 4.157Z"></path><path fill="#B3B3B3" d="M192.84 268.119 84.613 330.544l-6.576 3.869-.303.159a4.323 4.323 0 0 1-.55.216 3.785 3.785 0 0 1-.693.188 2.427 2.427 0 0 1-.448.072.126.126 0 0 1-.05.01.126.126 0 0 1-.051-.01 3.984 3.984 0 0 1-.578 0 3.574 3.574 0 0 1-1.735-.39 6.434 6.434 0 0 1-2.456-3.912l-18.238-94.662a3.011 3.011 0 0 1 0-.621 3.145 3.145 0 0 1 0-.519 3.58 3.58 0 0 1 .173-.78 6.95 6.95 0 0 1 .318-.736c.087-.145.174-.303.275-.448.11-.162.235-.312.376-.447a1.76 1.76 0 0 1 .375-.361c.133-.111.273-.212.42-.303l114.802-66.207.318-.159.332-.144a.393.393 0 0 1 .145 0c.139-.021.28-.021.419 0a5.148 5.148 0 0 1 2.037.967l2.544 1.443c.198.081.376.204.52.361.212.222.37.488.463.78.043.127.077.257.101.39l18.238 94.662a4.331 4.331 0 0 1-1.951 4.157Z"></path><path fill="#E0E0E0" d="M77.734 334.5a4.894 4.894 0 0 1-4.104.144 6.44 6.44 0 0 1-2.457-3.912l-18.238-94.648a4.324 4.324 0 0 1 .477-2.67l3.859 2.223a4.184 4.184 0 0 0-.492 2.671l18.253 94.661a1.873 1.873 0 0 0 .946 1.48 1.88 1.88 0 0 0 1.756.051Z"></path><path fill="#FAFAFA" d="m172.882 166.21 2.544 1.444a1.95 1.95 0 0 0-1.908.173L58.716 234.092a3.734 3.734 0 0 0-1.445 1.545l-3.859-2.281c.087-.145.174-.304.275-.448a2.82 2.82 0 0 1 .375-.448c.23-.259.498-.483.795-.664l114.803-66.207a5.22 5.22 0 0 1 .636-.303.435.435 0 0 1 .144 0c.139-.02.28-.02.419 0a5.171 5.171 0 0 1 2.023.924Z"></path><path fill="#F5F5F5" d="m75.032 332.969-18.238-94.662a4.329 4.329 0 0 1 1.923-4.215l114.787-66.221a1.908 1.908 0 0 1 3.021 1.443l18.223 94.662a4.329 4.329 0 0 1-1.922 4.215L78.038 334.413a1.907 1.907 0 0 1-3.006-1.444Z"></path><path fill="#EBEBEB" d="M159.876 240.285a3.32 3.32 0 0 1-1.445-2.642V65.514a3.416 3.416 0 0 1 1.56-2.7L268.262.39a2.89 2.89 0 0 1 4.48 2.598v172.13a3.427 3.427 0 0 1-1.561 2.699l-108.198 62.425a3.363 3.363 0 0 1-3.107.043Z"></path><path fill="#FAFAFA" d="M272.728 2.715c-.145-.794-.781-1.069-1.547-.621L162.954 64.446c-.463.286-.842.69-1.098 1.17l-2.89-1.69a3.385 3.385 0 0 1 1.113-1.184L268.262.405a3.355 3.355 0 0 1 3.035 0 3.503 3.503 0 0 1 1.431 2.31Z"></path><path fill="#E0E0E0" d="M162.766 240.343a3.358 3.358 0 0 1-2.89 0 3.32 3.32 0 0 1-1.445-2.642V65.514a3.2 3.2 0 0 1 .448-1.53l2.89 1.689c-.286.46-.445.989-.462 1.53v172.13c.086.909.693 1.342 1.459 1.01Z"></path><path fill="#F5F5F5" d="m162.968 240.242 108.184-62.425a3.42 3.42 0 0 0 1.56-2.699V2.988c0-.996-.693-1.443-1.56-.895L162.968 64.446a3.416 3.416 0 0 0-1.561 2.7v172.186c0 .997.694 1.401 1.561.91Z"></path><path fill="#455A64" d="M169.298 142.91c0 1.328 1.199 1.717 2.659.866l90.22-51.973a5.342 5.342 0 0 0 2.659-3.927c0-1.328-1.199-1.717-2.659-.866l-90.22 51.973a5.35 5.35 0 0 0-2.659 3.927Zm0 14.378c0 1.314 1.199 1.704 2.659.867l90.22-51.973a5.31 5.31 0 0 0 2.659-3.927c0-1.328-1.199-1.703-2.659-.866l-90.22 52.045a5.316 5.316 0 0 0-2.659 3.854Zm0 14.365c0 1.328 1.199 1.718 2.659.866l90.22-51.972a5.343 5.343 0 0 0 2.659-3.927c0-1.328-1.199-1.718-2.659-.866l-90.22 51.972a5.363 5.363 0 0 0-2.659 3.927Zm0 14.379c0 1.328 1.199 1.703 2.659.866l90.22-51.972a5.31 5.31 0 0 0 2.659-3.927c0-1.314-1.199-1.704-2.659-.866l-90.22 51.972a5.308 5.308 0 0 0-2.659 3.927Zm0-86.245c0 1.328 1.199 1.718 2.659.866l90.22-51.972a5.342 5.342 0 0 0 2.659-3.927c0-1.328-1.199-1.718-2.659-.866l-90.22 51.972a5.36 5.36 0 0 0-2.659 3.927Zm0 14.379c0 1.328 1.199 1.703 2.659.866l90.22-51.972a5.318 5.318 0 0 0 2.659-3.927c0-1.314-1.199-1.704-2.659-.852l-90.22 51.972a5.349 5.349 0 0 0-2.659 3.913Zm0-28.729c0 1.328 1.199 1.718 2.659.866l90.22-51.972a5.342 5.342 0 0 0 2.659-3.927c0-1.328-1.199-1.718-2.659-.866l-90.22 51.972a5.36 5.36 0 0 0-2.659 3.927Zm0 43.108c0 1.314 1.199 1.704 2.659.852l90.22-51.972a5.343 5.343 0 0 0 2.659-3.927c0-1.329-1.199-1.718-2.659-.867l-90.22 51.973a5.35 5.35 0 0 0-2.659 3.941Zm0 71.866c0 1.314 1.199 1.704 2.659.852l90.22-51.972a5.344 5.344 0 0 0 2.659-3.927c0-1.328-1.199-1.718-2.659-.866l-90.22 51.972a5.35 5.35 0 0 0-2.659 3.941Zm0 14.365c0 1.328 1.199 1.718 2.659.866l90.22-51.972a5.31 5.31 0 0 0 2.659-3.927c0-1.314-1.199-1.704-2.659-.852l-90.22 51.972a5.344 5.344 0 0 0-2.659 3.913Z" opacity="0.3"></path><path fill="#B3B3B3" d="M242.076 148.251a2.528 2.528 0 0 0-.983-2.252 1.667 1.667 0 0 0-.246-.159l-5.173-3.002a2.5 2.5 0 0 0-2.515.259L129.73 202.678l-3.092-12.156a3.366 3.366 0 0 0-1.446-1.978l-5.376-3.133a3.173 3.173 0 0 0-3.266.087l-43.975 25.394a7.905 7.905 0 0 0-3.584 6.194v146.59a2.542 2.542 0 0 0 .968 2.253l5.535 3.219a2.579 2.579 0 0 0 2.442-.303l160.628-92.641a7.899 7.899 0 0 0 3.584-6.193l-.072-121.76Z"></path><path fill="#fff" d="M125.193 188.501a3.173 3.173 0 0 0-3.209.144l-44.048 25.366a7.506 7.506 0 0 0-2.529 2.67l-5.361-3.118a7.223 7.223 0 0 1 2.529-2.671l43.947-25.365a3.199 3.199 0 0 1 3.28-.087l5.391 3.061Zm115.611-42.661a2.74 2.74 0 0 0-2.355.347l-103.473 59.739a3.138 3.138 0 0 1-4.783-1.891l-.477-1.3 103.429-59.594a3.079 3.079 0 0 1 1.575-.477c.323-.002.641.077.925.231l5.159 2.945Z" opacity="0.4"></path><path fill="#B3B3B3" d="m242.076 148.266.072 121.745a7.895 7.895 0 0 1-3.584 6.193L77.503 369.061a2.12 2.12 0 0 1-1.057.283 2.118 2.118 0 0 1-1.828-1.06 2.104 2.104 0 0 1-.28-1.056V220.204a7.211 7.211 0 0 1 1.04-3.508 7.517 7.517 0 0 1 2.53-2.671l44.019-25.423a3.21 3.21 0 0 1 3.208-.145h.101a3.339 3.339 0 0 1 1.445 1.978l3.02 12.127.477 1.314a3.12 3.12 0 0 0 4.769 1.891L238.478 146.1a2.662 2.662 0 0 1 2.341-.346l.144.086h.087a2.556 2.556 0 0 1 1.026 2.426Z"></path><path fill="#263238" d="M149.485 261.464c.228.102.474.156.723.159a1.705 1.705 0 0 0 1.532-.967l4.812-10.178v18.046a1.704 1.704 0 0 0 3.396 0v-21.656l5.159 4.967a1.699 1.699 0 0 0 2.875-1.251 1.698 1.698 0 0 0-.519-1.189l-8.035-7.724a1.716 1.716 0 0 0-1.484-.447 1.705 1.705 0 0 0-1.233.938l-8.035 17.007a1.679 1.679 0 0 0-.084 1.319 1.7 1.7 0 0 0 .893.976Z"></path><path fill="#263238" d="M169.79 256.151a1.69 1.69 0 0 0-1.691 1.689v10.164l-19.697 11.361v-8.257a1.707 1.707 0 0 0-2.847-1.103c-.314.287-.51.68-.549 1.103v11.188a1.692 1.692 0 0 0 .852 1.444 1.668 1.668 0 0 0 1.691 0l23.123-13.325a1.68 1.68 0 0 0 .838-1.444v-11.073a1.692 1.692 0 0 0-1.72-1.747Z"></path><path fill="#0F172A" d="M75.653 369.191a.329.329 0 0 1-.159 0l-5.535-3.205a2.624 2.624 0 0 1-.968-2.281V217.086a7.215 7.215 0 0 1 1.055-3.523l5.361 3.118a7.215 7.215 0 0 0-1.054 3.523v147.053a2.076 2.076 0 0 0 1.3 1.934Z" opacity="0.2"></path><path fill="#0F172A" fill-opacity="0.2" d="M392.719 333.33v11.001l42.415 45.923v-11.001l-42.415-45.923Z"></path><path fill="#0F172A" d="M439.224 341.675v-11.001l-4.09 48.579v11.001l4.09-48.579Z" opacity="0.2"></path><path fill="#0F172A" fill-opacity="0.3" d="M296.371 407.506c-49.453-4.143-94.831-24.008-117.173-52.882l.853-10.106 17.342-3.998c22.746 29.378 78.37 47.973 132.288 44.205 31.895-2.238 59.439-12.026 75.538-26.867l16.518 6.872-.838 10.106c-20.232 18.594-52.025 30.317-89.599 32.915-11.632.813-23.31.731-34.929-.245Z" opacity="0.15"></path><path fill="#F5F5F5" d="m439.238 330.688-46.52 2.642 13.397 14.509c-16.114 14.841-43.644 24.629-75.552 26.867-53.904 3.768-109.543-14.827-132.275-44.206l-18.18 14.091c22.342 28.873 67.72 48.68 117.173 52.824a227.787 227.787 0 0 0 34.958.26c37.574-2.628 69.367-14.322 89.599-32.916l13.397 14.509 4.003-48.58Z"></path></svg>