<svg xmlns="http://www.w3.org/2000/svg" viewBox="0 0 100 120" fill="none" class="w-auto h-full shrink-0"><path fill="#FF3E4C" d="M69.832 24.624a10.32 10.32 0 0 1-10.31-10.31V0H13.455A13.454 13.454 0 0 0 0 13.454v81.107a13.455 13.455 0 0 0 13.454 13.435h55.303a13.454 13.454 0 0 0 13.455-13.435V24.624h-12.38Z" opacity="0.3"></path><path fill="#FF3E4C" d="M82.212 24.624h-12.38a10.32 10.32 0 0 1-10.31-10.31V0l22.69 24.624ZM65.297 75.417H13.68a1.875 1.875 0 0 1-1.875-1.875 1.875 1.875 0 0 1 1.875-1.87h51.617a1.87 1.87 0 0 1 1.73 2.587 1.87 1.87 0 0 1-1.73 1.158Zm0-21.117H13.68a1.875 1.875 0 0 1-1.875-1.87 1.875 1.875 0 0 1 1.875-1.875h51.617a1.87 1.87 0 0 1 1.87 1.875 1.87 1.87 0 0 1-1.87 1.87Zm0 10.558H13.68a1.875 1.875 0 0 1-1.875-1.875 1.875 1.875 0 0 1 1.875-1.87h51.617a1.87 1.87 0 0 1 1.73 2.587 1.87 1.87 0 0 1-1.73 1.158ZM44.938 43.737H13.68a1.875 1.875 0 0 1-1.875-1.87 1.875 1.875 0 0 1 1.875-1.875h31.258a1.875 1.875 0 0 1 1.87 1.875 1.875 1.875 0 0 1-1.87 1.87Zm0-10.559H13.68a1.875 1.875 0 0 1-1.875-1.87 1.875 1.875 0 0 1 1.875-1.874h31.258a1.875 1.875 0 0 1 1.87 1.874 1.875 1.875 0 0 1-1.87 1.87ZM91.966 85.3H29.449a8.03 8.03 0 0 0-8.03 8.03v18.64a8.03 8.03 0 0 0 8.03 8.029h62.517a8.03 8.03 0 0 0 8.03-8.029V93.33a8.03 8.03 0 0 0-8.03-8.03Z"></path><path fill="#fff" d="M41.928 106.684v3.635h-3.76v-3.635h3.76Zm5.53-1.639v5.275h-3.635V95.285h5.89c1.785 0 3.15.445 4.085 1.33a4.699 4.699 0 0 1 1.4 3.585 4.905 4.905 0 0 1-.625 2.5 4.382 4.382 0 0 1-1.86 1.725 6.543 6.543 0 0 1-3 .625l-2.255-.005Zm4.04-4.845c0-1.333-.73-2-2.19-2h-1.85v3.915h1.85c1.46.013 2.19-.625 2.19-1.915Zm18.064 6.498a6.635 6.635 0 0 1-2.72 2.67 8.717 8.717 0 0 1-4.18.955h-5.675V95.288h5.675a8.86 8.86 0 0 1 4.19.935 6.5 6.5 0 0 1 2.71 2.64 7.86 7.86 0 0 1 .95 3.91 7.937 7.937 0 0 1-.95 3.925Zm-3.91-.755a4.182 4.182 0 0 0 1.18-3.17 4.167 4.167 0 0 0-1.18-3.165 4.585 4.585 0 0 0-3.305-1.13h-1.725v8.59h1.725a4.608 4.608 0 0 0 3.305-1.125Zm16.725-10.658v2.895h-6.165v3.295h4.76v2.765h-4.76v6.08h-3.64V95.285h9.805Z"></path><path fill="#FF3E4C" d="M64.383 29.434h-8.84a2.79 2.79 0 0 0-2.79 2.79v8.84a2.79 2.79 0 0 0 2.79 2.79h8.84a2.79 2.79 0 0 0 2.79-2.79v-8.84a2.79 2.79 0 0 0-2.79-2.79Z"></path></svg>