<svg xmlns="http://www.w3.org/2000/svg" viewBox="0 0 100 120" fill="none" class="w-auto h-full shrink-0"><path fill="#0072FF" d="M69.832 24.624a10.32 10.32 0 0 1-10.31-10.31V0H13.459A13.455 13.455 0 0 0 0 13.454V94.56a13.455 13.455 0 0 0 13.46 13.455h55.297A13.455 13.455 0 0 0 82.21 94.56V24.624H69.83Z" opacity="0.3"></path><path fill="#0072FF" d="M82.211 24.624H69.832a10.32 10.32 0 0 1-10.31-10.31V0l22.69 24.624ZM65.297 41.862H13.68a1.87 1.87 0 0 1-1.73-2.587 1.87 1.87 0 0 1 1.73-1.158h51.617a1.875 1.875 0 0 1 1.875 1.875 1.875 1.875 0 0 1-1.875 1.87Zm0 11.188H13.68a1.87 1.87 0 0 1-1.73-2.587 1.87 1.87 0 0 1 1.73-1.158h51.617a1.875 1.875 0 0 1 1.875 1.875 1.875 1.875 0 0 1-1.875 1.87Zm0 11.183H13.68a1.87 1.87 0 0 1-1.87-1.875 1.87 1.87 0 0 1 1.87-1.87h51.617a1.875 1.875 0 0 1 1.875 1.87 1.875 1.875 0 0 1-1.875 1.875ZM44.928 75.417H13.68a1.87 1.87 0 0 1-1.87-1.875 1.87 1.87 0 0 1 1.87-1.87h31.248a1.87 1.87 0 0 1 1.729 2.587 1.87 1.87 0 0 1-1.73 1.158ZM91.97 85.3H29.453a8.03 8.03 0 0 0-8.03 8.03v18.639a8.03 8.03 0 0 0 8.03 8.03H91.97a8.03 8.03 0 0 0 8.03-8.03V93.33a8.03 8.03 0 0 0-8.03-8.03Z"></path><path fill="#fff" d="M30.589 106.684v3.634h-3.765v-3.634h3.765Zm14.469.013a6.662 6.662 0 0 1-2.72 2.67 8.729 8.729 0 0 1-4.18.955h-5.68V95.288h5.68a8.889 8.889 0 0 1 4.19.935 6.539 6.539 0 0 1 2.71 2.64c.646 1.2.972 2.546.945 3.909a8 8 0 0 1-.945 3.925Zm-3.91-.755a4.18 4.18 0 0 0 1.18-3.17 4.171 4.171 0 0 0-1.18-3.165 4.59 4.59 0 0 0-3.31-1.13h-1.72v8.59h1.72a4.61 4.61 0 0 0 3.31-1.125Zm17.924-9.902a7.245 7.245 0 0 1 2.735 2.744 7.874 7.874 0 0 1 1 3.965 7.837 7.837 0 0 1-1 3.975 7.223 7.223 0 0 1-2.74 2.755 7.61 7.61 0 0 1-3.84 1 7.61 7.61 0 0 1-3.84-1 7.223 7.223 0 0 1-2.74-2.755 7.837 7.837 0 0 1-1-3.975 7.785 7.785 0 0 1 1-3.965 7.26 7.26 0 0 1 2.74-2.745 7.6 7.6 0 0 1 3.84-1 7.635 7.635 0 0 1 3.845 1Zm-6.7 3.55a4.54 4.54 0 0 0-1.05 3.159 4.501 4.501 0 0 0 1.05 3.145 3.638 3.638 0 0 0 2.84 1.17 3.645 3.645 0 0 0 2.83-1.17 4.5 4.5 0 0 0 1.06-3.145 4.53 4.53 0 0 0-1.05-3.145 3.63 3.63 0 0 0-2.84-1.17 3.66 3.66 0 0 0-2.84 1.155Zm24.094-2.942a6.93 6.93 0 0 1 2.435 4.085h-3.85a3.544 3.544 0 0 0-1.304-1.64 3.68 3.68 0 0 0-2.095-.595 3.195 3.195 0 0 0-2.575 1.17c-.696.89-1.05 2-1 3.13a4.693 4.693 0 0 0 1 3.114 3.216 3.216 0 0 0 2.575 1.155 3.637 3.637 0 0 0 2.095-.595 3.528 3.528 0 0 0 1.305-1.615h3.85a6.962 6.962 0 0 1-2.436 4.075 7.336 7.336 0 0 1-4.75 1.5 7.496 7.496 0 0 1-3.849-.97 6.605 6.605 0 0 1-2.565-2.71 8.558 8.558 0 0 1-.905-3.999 8.566 8.566 0 0 1 .905-4 6.604 6.604 0 0 1 2.565-2.71 7.5 7.5 0 0 1 3.85-.97 7.364 7.364 0 0 1 4.75 1.575Zm13.6 13.671-3.17-4.679-2.72 4.679h-4.17l4.81-7.739-4.955-7.295h4.315l3.085 4.53 2.655-4.53h4.15l-4.745 7.57 5.06 7.464h-4.315Z"></path></svg>