<svg xmlns="http://www.w3.org/2000/svg" viewBox="0 0 100 120" fill="none" class="w-auto h-full shrink-0"><path fill="#A140FF" d="M69.835 24.62a10.32 10.32 0 0 1-10.31-10.31V0h-46.07A13.455 13.455 0 0 0 0 13.45v81.11A13.454 13.454 0 0 0 13.455 108h55.3a13.446 13.446 0 0 0 9.517-3.939 13.46 13.46 0 0 0 3.943-9.516V24.62h-12.38Z" opacity="0.3"></path><path fill="#A140FF" d="M82.215 24.62h-12.38a10.32 10.32 0 0 1-10.31-10.31V0l22.69 24.62ZM91.97 85.3H29.45a8.03 8.03 0 0 0-8.03 8.03v18.641a8.03 8.03 0 0 0 8.03 8.03h62.52a8.03 8.03 0 0 0 8.03-8.03v-18.64a8.03 8.03 0 0 0-8.03-8.03Z"></path><path fill="#fff" d="m32.904 95.453 3.516 11.051h.135l3.523-11.051h3.409l-5.014 14.545H34.51l-5.022-14.545h3.416Zm15.409 0v14.545h-3.075V95.453h3.075ZM56 109.998h-5.157V95.453h5.199c1.463 0 2.722.291 3.778.873a5.894 5.894 0 0 1 2.436 2.493c.573 1.084.86 2.382.86 3.892 0 1.515-.287 2.818-.86 3.907a5.909 5.909 0 0 1-2.45 2.507c-1.06.582-2.33.873-3.807.873Zm-2.082-2.635h1.953c.91 0 1.674-.161 2.294-.483.626-.326 1.094-.831 1.407-1.512.317-.687.476-1.572.476-2.657 0-1.075-.159-1.953-.476-2.635-.313-.681-.78-1.183-1.4-1.505-.62-.322-1.384-.483-2.293-.483h-1.96v9.275Zm11.476 2.635V95.453h9.801v2.535h-6.726v3.466h6.222v2.536h-6.222v3.473h6.754v2.535h-9.83Zm25.612-7.273c0 1.587-.3 2.936-.902 4.049-.596 1.112-1.41 1.962-2.443 2.55-1.027.582-2.183.873-3.466.873-1.292 0-2.452-.293-3.48-.881-1.027-.587-1.84-1.437-2.436-2.549-.596-1.113-.895-2.46-.895-4.042 0-1.586.299-2.935.895-4.048.597-1.113 1.409-1.96 2.436-2.542 1.028-.588 2.188-.881 3.48-.881 1.284 0 2.439.293 3.466.88 1.032.583 1.847 1.43 2.443 2.543.602 1.113.902 2.462.902 4.048Zm-3.118 0c0-1.027-.153-1.893-.461-2.599-.303-.705-.732-1.24-1.286-1.605s-1.202-.547-1.946-.547c-.743 0-1.392.182-1.946.547-.554.364-.985.9-1.292 1.605-.303.706-.455 1.572-.455 2.599 0 1.028.152 1.894.455 2.6.307.705.738 1.24 1.292 1.605s1.203.547 1.946.547c.744 0 1.392-.182 1.946-.547.554-.365.983-.9 1.286-1.605.308-.706.461-1.572.461-2.6Z"></path><path fill="#A140FF" d="M59.72 65.955V42.1a1.912 1.912 0 0 0-.035-.345.576.576 0 0 0-.025-.1 1.747 1.747 0 0 0-.07-.23.878.878 0 0 0-.045-.1 1.39 1.39 0 0 0-.11-.21l-.05-.08a2.043 2.043 0 0 0-.21-.255l-.035-.03a2.416 2.416 0 0 0-.215-.18l-.09-.055-.2-.11-.105-.045a1.917 1.917 0 0 0-.24-.075h-.08a1.618 1.618 0 0 0-.345-.035h-33.68a1.866 1.866 0 0 0-1.695 1.855V66.04c-.012.307.086.608.275.85a1.854 1.854 0 0 0 1.595.91h33.5a1.87 1.87 0 0 0 1.86-1.845ZM24.5 44.74v-3.62h2.945v3.62H24.5Zm4.97 0v-3.62h2.945v3.62H29.47Zm4.97 0v-3.62h2.945v3.62H34.44Zm4.97 0v-3.62h2.945v3.62H39.41Zm4.97 0v-3.62h2.945v3.62H44.38Zm4.97 0v-3.62h2.945v3.62H49.35Zm4.97 0v-3.62h2.945v3.62H54.32Zm-30.5 17.555V45.72h34.615v16.575H23.82Zm.675 4.595v-3.62h2.945v3.62h-2.945Zm4.97 0v-3.62h2.945v3.62h-2.945Zm4.97 0v-3.62h2.945v3.62h-2.945Zm4.97 0v-3.62h2.945v3.62h-2.945Zm4.97 0v-3.62h2.945v3.62h-2.945Zm4.97 0v-3.62h2.945v3.62h-2.945Zm4.97 0v-3.62h2.945v3.62h-2.945Z"></path><path fill="#A140FF" d="m45.11 52.781-4.785-2.765a1.628 1.628 0 0 0-2.44 1.41v5.53a1.63 1.63 0 0 0 2.44 1.41l4.785-2.765a1.63 1.63 0 0 0 0-2.82Z"></path></svg>