<svg xmlns="http://www.w3.org/2000/svg" viewBox="0 0 80 80" fill="none" class="h-auto transition-all w-7 group-hover:scale-110 group-hover:brightness-105"><path fill="#FFA000" d="M64.65 12H15.19c-4.007-.007-7.26 3.195-7.267 7.15 0 .322.02.644.064.963a1.451 1.451 0 0 0 1.63 1.24c.194-.025.38-.088.55-.186a4.161 4.161 0 0 1 2.114-.552H22.64c1.869.005 3.53 1.179 4.137 2.924l.247.786c1 2.925 3.776 4.897 6.904 4.905H67.56a4.407 4.407 0 0 1 2.173.575c.224.128.478.195.736.195.803 0 1.455-.643 1.455-1.436V19.18c0-3.965-3.257-7.179-7.274-7.179Z"></path><path fill="#FFC107" d="M71.363 27.622a7.316 7.316 0 0 0-3.655-.975H33.992a4.395 4.395 0 0 1-4.148-2.934l-.248-.79C28.593 19.988 25.81 18.01 22.675 18H12.292a7.043 7.043 0 0 0-3.57.931A7.175 7.175 0 0 0 5 25.206v34.588C5 63.774 8.265 67 12.292 67h55.416C71.735 67 75 63.774 75 59.794v-25.94a7.141 7.141 0 0 0-3.637-6.232Z"></path></svg>