<svg xmlns="http://www.w3.org/2000/svg" viewBox="0 0 311 144" fill="none" class="w-full h-auto"><path class="fill-[#0F172A] dark:fill-[#fff]" d="M117.734 103.952c.016 1.616.688 2.496 1.872 2.496 1.216 0 1.904-.896 1.904-2.496V96.64h2.08v7.312c0 2.608-1.6 4.304-4.016 4.304-2.304 0-3.92-1.728-3.936-4.16l2.096-.144ZM133.049 108h-1.888l-.032-1.344c-.464 1.104-1.408 1.536-2.512 1.536-1.84 0-2.864-1.312-2.864-3.216V99.52h2.048v4.784c0 1.44.384 2.224 1.456 2.224 1.104 0 1.744-.784 1.744-2.224V99.52h2.048V108Zm7.056-5.76c-.16-.864-.912-1.376-1.728-1.376-.8 0-1.424.416-1.408 1.104.016.688.864.976 1.712 1.136 2.32.4 3.6 1.008 3.6 2.624 0 1.68-1.632 2.464-3.616 2.464-2.32 0-3.888-1.088-4.032-2.88l2.096-.112c.16.896.832 1.44 1.888 1.44.704 0 1.552-.256 1.536-.96 0-.816-.944-.944-1.808-1.136-2.096-.416-3.504-.96-3.504-2.544 0-1.664 1.376-2.672 3.648-2.672 1.984 0 3.408 1.072 3.696 2.816l-2.08.096Zm4.451-4.64h2.048v1.92h2.24v1.584h-2.24v4.288c0 .656.336 1.024.96 1.024h1.28V108h-1.616c-1.744 0-2.672-.88-2.672-2.608v-4.288h-1.344V99.52h1.344V97.6Zm19.457 6.432c-.448 2.608-2.144 4.224-4.816 4.224-3.328 0-5.376-2.576-5.376-5.92 0-3.36 2.032-5.952 5.376-5.952 2.544 0 4.256 1.52 4.752 4.032l-2.176.096c-.304-1.472-1.248-2.32-2.608-2.32-2.208 0-3.184 1.84-3.184 4.144 0 2.288.992 4.112 3.184 4.112 1.424 0 2.384-.912 2.656-2.528l2.192.112Zm1.724-7.392h2.048v9.152c0 .4.224.624.624.624h.64V108h-1.168c-1.28 0-2.144-.8-2.144-2.128V96.64Zm5.016 2.88h2.048V108h-2.048v-8.48Zm-.032-1.168v-1.696h2.128v1.696h-2.128Zm9.85 4.288c-.16-1.056-.928-1.648-1.824-1.648-1.328 0-2.08 1.024-2.08 2.768 0 1.744.752 2.768 2.08 2.768.944 0 1.696-.608 1.856-1.76l2.128.096c-.24 2.048-1.872 3.328-3.984 3.328-2.544 0-4.208-1.744-4.208-4.432 0-2.688 1.664-4.432 4.208-4.432 2.048 0 3.712 1.216 3.936 3.2l-2.112.112Zm3.666-6h2.048v6.704l3.472-3.824h2.512l-3.312 3.504 3.472 4.976h-2.304l-2.512-3.744-1.328 1.424V108h-2.048V96.64Zm22.116 0v1.808h-3.456V108h-2.08v-9.552h-3.44V96.64h8.976Zm1.54 0h2.048v4.016c.496-.96 1.424-1.328 2.464-1.328 1.76 0 2.864 1.28 2.864 3.216V108h-2.048v-4.72c0-1.456-.432-2.224-1.488-2.224-1.12 0-1.792.784-1.792 2.224V108h-2.048V96.64Zm8.943 7.12c0-2.688 1.664-4.432 4.208-4.432 2.192 0 3.952 1.504 3.984 4.496v.496h-6.032c.096 1.408.832 2.256 2.048 2.256a1.91 1.91 0 0 0 1.776-1.184l2.096.16c-.512 1.616-2.048 2.64-3.872 2.64-2.544 0-4.208-1.744-4.208-4.432Zm2.176-.8h3.904c-.16-1.456-.96-2.016-1.872-2.016-1.136 0-1.872.752-2.032 2.016Zm13.425 1.216c.24 1.328 1.184 2.208 2.736 2.208 1.2 0 2.016-.48 2.016-1.408-.016-.944-.816-1.488-2.752-1.968-2.272-.544-3.872-1.52-3.872-3.344 0-2.016 1.664-3.28 4.096-3.28 2.512 0 4.208 1.552 4.448 3.776l-2.096.096c-.16-1.264-1.056-2.08-2.384-2.08-1.152 0-1.968.592-1.936 1.52.016 1.088 1.328 1.424 2.624 1.76 2.368.56 4 1.632 4 3.408 0 2.144-1.904 3.328-4.24 3.328-2.672 0-4.56-1.52-4.752-3.888l2.112-.128Zm8.488-4.656h2.048V108h-2.048v-8.48Zm-.032-1.168v-1.696h2.128v1.696h-2.128Zm7.53 9.232c-2.208 0-3.712-1.632-3.712-4.048 0-2.512 1.504-4.208 3.696-4.208 1.104 0 2.048.56 2.48 1.504V99.52h2v7.52c0 2.24-1.664 3.552-4.064 3.552-1.936 0-3.408-.96-3.856-2.432l2.096-.128c.272.624.896 1.024 1.776 1.024 1.248 0 1.984-.592 1.984-1.76v-1.056c-.4.816-1.36 1.344-2.4 1.344Zm-1.6-4.064c0 1.552.816 2.56 2.064 2.56 1.2 0 2-1.008 2.016-2.56.016-1.568-.768-2.56-2.016-2.56-1.264 0-2.064.992-2.064 2.56Zm8.32-4h1.856l.064 1.408c.448-1.152 1.408-1.6 2.544-1.6 1.888 0 2.912 1.312 2.912 3.216V108h-2.064v-4.8c0-1.424-.368-2.208-1.472-2.208-1.12 0-1.792.784-1.792 2.208v4.8h-2.048v-8.48Zm13.551-2.88h2.08V108h-2.08V96.64Zm4.278 2.88h1.856l.064 1.408c.448-1.152 1.408-1.6 2.544-1.6 1.888 0 2.912 1.312 2.912 3.216V108h-2.064v-4.8c0-1.424-.368-2.208-1.472-2.208-1.12 0-1.792.784-1.792 2.208v4.8h-2.048v-8.48ZM90.546 136v-11.36h4.064c2.96 0 4.432 1.008 4.432 3.152 0 1.328-.832 2.192-2.272 2.336 1.76.144 2.752 1.104 2.752 2.656 0 2.096-1.488 3.216-4.272 3.216h-4.704Zm2.08-1.76h2.656c1.296 0 2.112-.544 2.112-1.6 0-1.04-.8-1.6-2.112-1.6h-2.656v3.2Zm0-4.832h2.112c1.36 0 2.176-.512 2.176-1.488 0-1.024-.768-1.52-2.176-1.52h-2.112v3.008ZM108.604 136h-1.888l-.032-1.344c-.464 1.104-1.408 1.536-2.512 1.536-1.84 0-2.864-1.312-2.864-3.216v-5.456h2.048v4.784c0 1.44.384 2.224 1.456 2.224 1.104 0 1.744-.784 1.744-2.224v-4.784h2.048V136Zm2.991-10.4h2.048v1.92h3.52v-1.92h2.048v1.92h2.24v1.584h-2.24v4.288c0 .656.336 1.024.96 1.024h1.28V136h-1.616c-1.744 0-2.672-.88-2.672-2.608v-4.288h-3.52v4.288c0 .656.336 1.024.96 1.024h1.28V136h-1.616c-1.744 0-2.672-.88-2.672-2.608v-4.288h-1.344v-1.584h1.344v-1.92Zm15.066 10.592c-2.544 0-4.208-1.744-4.208-4.432 0-2.688 1.664-4.432 4.208-4.432 2.528 0 4.192 1.744 4.192 4.432 0 2.688-1.664 4.432-4.192 4.432Zm-2.08-4.432c0 1.744.752 2.768 2.08 2.768 1.312 0 2.08-1.024 2.08-2.768 0-1.744-.768-2.768-2.08-2.768-1.328 0-2.08 1.024-2.08 2.768Zm7.93-4.24h1.856l.064 1.408c.448-1.152 1.408-1.6 2.544-1.6 1.888 0 2.912 1.312 2.912 3.216V136h-2.064v-4.8c0-1.424-.368-2.208-1.472-2.208-1.12 0-1.792.784-1.792 2.208v4.8h-2.048v-8.48Zm14.334-1.92h2.048v1.92h2.24v1.584h-2.24v4.288c0 .656.336 1.024.96 1.024h1.28V136h-1.616c-1.744 0-2.672-.88-2.672-2.608v-4.288h-1.344v-1.584h1.344v-1.92Zm9.472 10.592c-2.544 0-4.208-1.744-4.208-4.432 0-2.688 1.664-4.432 4.208-4.432 2.528 0 4.192 1.744 4.192 4.432 0 2.688-1.664 4.432-4.192 4.432Zm-2.08-4.432c0 1.744.752 2.768 2.08 2.768 1.312 0 2.08-1.024 2.08-2.768 0-1.744-.768-2.768-2.08-2.768-1.328 0-2.08 1.024-2.08 2.768Zm11.084 4.24 4.096-11.36h2.544l4.096 11.36h-2.176l-.944-2.688h-4.496l-.944 2.688h-2.176Zm3.728-4.464h3.28l-1.632-4.8-1.648 4.8Zm13.842-.896c-.16-1.056-.928-1.648-1.824-1.648-1.328 0-2.08 1.024-2.08 2.768 0 1.744.752 2.768 2.08 2.768.944 0 1.696-.608 1.856-1.76l2.128.096c-.24 2.048-1.872 3.328-3.984 3.328-2.544 0-4.208-1.744-4.208-4.432 0-2.688 1.664-4.432 4.208-4.432 2.048 0 3.712 1.216 3.936 3.2l-2.112.112Zm9.36 0c-.16-1.056-.928-1.648-1.824-1.648-1.328 0-2.08 1.024-2.08 2.768 0 1.744.752 2.768 2.08 2.768.944 0 1.696-.608 1.856-1.76l2.128.096c-.24 2.048-1.872 3.328-3.984 3.328-2.544 0-4.208-1.744-4.208-4.432 0-2.688 1.664-4.432 4.208-4.432 2.048 0 3.712 1.216 3.936 3.2l-2.112.112Zm3.327 1.12c0-2.688 1.664-4.432 4.208-4.432 2.192 0 3.952 1.504 3.984 4.496v.496h-6.032c.096 1.408.832 2.256 2.048 2.256a1.91 1.91 0 0 0 1.776-1.184l2.096.16c-.512 1.616-2.048 2.64-3.872 2.64-2.544 0-4.208-1.744-4.208-4.432Zm2.176-.8h3.904c-.16-1.456-.96-2.016-1.872-2.016-1.136 0-1.872.752-2.032 2.016Zm12.812-.72c-.16-.864-.912-1.376-1.728-1.376-.8 0-1.424.416-1.408 1.104.016.688.864.976 1.712 1.136 2.32.4 3.6 1.008 3.6 2.624 0 1.68-1.632 2.464-3.616 2.464-2.32 0-3.888-1.088-4.032-2.88l2.096-.112c.16.896.832 1.44 1.888 1.44.704 0 1.552-.256 1.536-.96 0-.816-.944-.944-1.808-1.136-2.096-.416-3.504-.96-3.504-2.544 0-1.664 1.376-2.672 3.648-2.672 1.984 0 3.408 1.072 3.696 2.816l-2.08.096Zm8.953 0c-.16-.864-.912-1.376-1.728-1.376-.8 0-1.424.416-1.408 1.104.016.688.864.976 1.712 1.136 2.32.4 3.6 1.008 3.6 2.624 0 1.68-1.632 2.464-3.616 2.464-2.32 0-3.888-1.088-4.032-2.88l2.096-.112c.16.896.832 1.44 1.888 1.44.704 0 1.552-.256 1.536-.96 0-.816-.944-.944-1.808-1.136-2.096-.416-3.504-.96-3.504-2.544 0-1.664 1.376-2.672 3.648-2.672 1.984 0 3.408 1.072 3.696 2.816l-2.08.096Zm11.662-5.6c3.616 0 5.648 2.048 5.648 5.696 0 3.632-1.984 5.664-5.552 5.664h-3.872v-11.36h3.776Zm-1.696 9.552h1.696c2.368 0 3.52-1.264 3.52-3.856 0-2.624-1.152-3.888-3.52-3.888h-1.696v7.744Zm8.846-4.08c.336-1.776 1.696-2.784 3.792-2.784 2.448 0 3.728 1.264 3.728 3.648v2.912c0 .48.208.624.528.624h.336V136l-.48.016c-.656.016-2 .032-2.16-1.312-.4.848-1.36 1.488-2.832 1.488-1.712 0-3.056-.912-3.056-2.416 0-1.632 1.232-2.192 3.232-2.576l2.368-.464c0-1.312-.56-1.936-1.664-1.936-.912 0-1.504.496-1.696 1.424l-2.096-.112Zm1.984 3.6c0 .576.496 1.04 1.488 1.04 1.152 0 2.032-.848 2.032-2.512v-.112l-1.616.288c-1.072.192-1.904.336-1.904 1.296Zm12.876-3.472c-.16-.864-.912-1.376-1.728-1.376-.8 0-1.424.416-1.408 1.104.016.688.864.976 1.712 1.136 2.32.4 3.6 1.008 3.6 2.624 0 1.68-1.632 2.464-3.616 2.464-2.32 0-3.888-1.088-4.032-2.88l2.096-.112c.16.896.832 1.44 1.888 1.44.704 0 1.552-.256 1.536-.96 0-.816-.944-.944-1.808-1.136-2.096-.416-3.504-.96-3.504-2.544 0-1.664 1.376-2.672 3.648-2.672 1.984 0 3.408 1.072 3.696 2.816l-2.08.096Zm3.695-5.6h2.048v4.016c.496-.96 1.424-1.328 2.464-1.328 1.76 0 2.864 1.28 2.864 3.216V136h-2.048v-4.72c0-1.456-.432-2.224-1.488-2.224-1.12 0-1.792.784-1.792 2.224V136h-2.048v-11.36Zm9.609 0h2.048v4.032c.496-.832 1.456-1.344 2.56-1.344 2.208 0 3.584 1.712 3.584 4.432 0 2.72-1.376 4.432-3.584 4.432-1.168 0-2.128-.544-2.608-1.408l-.048 1.216h-1.952v-11.36Zm1.92 7.12c0 1.696.816 2.784 2.08 2.784 1.248 0 2.08-1.088 2.08-2.784 0-1.728-.816-2.832-2.08-2.832-1.264 0-2.08 1.104-2.08 2.832Zm11.793 4.432c-2.544 0-4.208-1.744-4.208-4.432 0-2.688 1.664-4.432 4.208-4.432 2.528 0 4.192 1.744 4.192 4.432 0 2.688-1.664 4.432-4.192 4.432Zm-2.08-4.432c0 1.744.752 2.768 2.08 2.768 1.312 0 2.08-1.024 2.08-2.768 0-1.744-.768-2.768-2.08-2.768-1.328 0-2.08 1.024-2.08 2.768Zm7.844-1.648c.336-1.776 1.696-2.784 3.792-2.784 2.448 0 3.728 1.264 3.728 3.648v2.912c0 .48.208.624.528.624h.336V136l-.48.016c-.656.016-2 .032-2.16-1.312-.4.848-1.36 1.488-2.832 1.488-1.712 0-3.056-.912-3.056-2.416 0-1.632 1.232-2.192 3.232-2.576l2.368-.464c0-1.312-.56-1.936-1.664-1.936-.912 0-1.504.496-1.696 1.424l-2.096-.112Zm1.984 3.6c0 .576.496 1.04 1.488 1.04 1.152 0 2.032-.848 2.032-2.512v-.112l-1.616.288c-1.072.192-1.904.336-1.904 1.296Zm7.898-6.192h1.92l.048 1.664c.32-1.12.96-1.664 2.048-1.664h.784v1.584h-.8c-1.36 0-1.952.704-1.952 2.064V136h-2.048v-8.48Zm13.76-2.88V136h-1.952l-.048-1.216c-.48.864-1.44 1.408-2.608 1.408-2.208 0-3.584-1.712-3.584-4.432 0-2.72 1.376-4.432 3.584-4.432 1.104 0 2.064.512 2.56 1.344v-4.032h2.048Zm-6.08 7.12c0 1.696.832 2.784 2.08 2.784 1.264 0 2.08-1.088 2.08-2.784 0-1.728-.816-2.832-2.08-2.832-1.264 0-2.08 1.104-2.08 2.832Z"></path><path class="fill-[#0F172A] dark:fill-[#fff] stroke-[#fff] dark:stroke-[#0F172A]" stroke-width="4" d="m5.536 18.174 15.18-15.066 12.26 16.376-7.195-.333-2-.092-.09 2c-.598 13.3 5.591 29.597 16.648 44.78 9.372 12.864 21.423 23.801 33.887 31.423 11.704 7.157 23.928 11.484 34.739 11.581l.374 9.326c-19.999-.016-44.212-12.194-63.62-31.694l-.001-.001c-4.7-4.716-9.03-9.787-12.953-15.166-12.68-17.404-19.115-35.421-18.443-50.73l.087-1.994-1.993-.092-6.88-.318Z"></path></svg>